<?xml version="1.0" encoding="UTF-8" standalone="no"?>
<svg
   viewBox="0 0 500 500"
   version="1.1"
   id="svg325"
   sodipodi:docname="404-space-rafiki.svg"
   inkscape:version="1.3.2 (091e20e, 2023-11-25, custom)"
   xmlns:inkscape="http://www.inkscape.org/namespaces/inkscape"
   xmlns:sodipodi="http://sodipodi.sourceforge.net/DTD/sodipodi-0.dtd"
   xmlns="http://www.w3.org/2000/svg"
   xmlns:svg="http://www.w3.org/2000/svg">
  <defs
     id="defs325" />
  <sodipodi:namedview
     id="namedview325"
     pagecolor="#1e1e1e"
     bordercolor="#000000"
     borderopacity="0.24705882"
     inkscape:showpageshadow="2"
     inkscape:pageopacity="0.0"
     inkscape:pagecheckerboard="0"
     inkscape:deskcolor="#d1d1d1"
     inkscape:zoom="1.642"
     inkscape:cx="250"
     inkscape:cy="250"
     inkscape:window-width="1920"
     inkscape:window-height="1017"
     inkscape:window-x="-8"
     inkscape:window-y="-8"
     inkscape:window-maximized="1"
     inkscape:current-layer="svg325" />
  <g
     id="freepik--Space--inject-89"
     style="display:inline">
    <path
       d="m 235.41,79.3 c 84,-2.47 193.16,82.18 193,205.61 -0.07,66.7 -102,168.48 -204.56,155.14 C 121.29,426.71 73.08,340.28 66.36,270.34 59.64,200.4 108.14,83.05 235.41,79.3 Z"
       style="fill:#263238"
       id="path48" />
    <path
       d="m 275.24,111.34 c -56.66,-8.94 -112.82,22.35 -111.32,29.37 1.5,7.02 14.83,1.63 22.8,1.56 7.97,-0.07 -34.21,28.35 -38.44,44.6 -4.23,16.25 40.07,-32.18 80,-40 39.93,-7.82 22.6,-11.63 19.81,-18 -2.79,-6.37 39.6,-13.61 72.6,3.05 33,16.66 52.61,40.68 61.69,55 0.03,-0.05 -21.85,-62.13 -107.14,-75.58 z"
       style="opacity:0.1;fill:#ffffff"
       id="path49" />
    <path
       d="m 260.27,182.46 c 2.67,-13.38 36.8,-15.73 62.26,1.75 25.46,17.48 29.28,36.47 23.65,35.86 -5.63,-0.61 23.34,15.1 33.64,52.87 10.3,37.77 -0.58,81.61 -33.64,106.11 0,0 21.73,-22.39 17.8,-63.3 -3.93,-40.91 -50.43,-49.1 -59.88,-60.3 -9.45,-11.2 -2.08,-28 15.07,-30.7 17.15,-2.7 2.59,-23.69 -16,-24.25 -18.59,-0.56 -33,3.89 -35.55,0.35 -2.55,-3.54 -49.33,4.54 -58.63,40.32 -9.3,35.78 -22.73,25.41 -14.43,0 8.3,-25.41 62.41,-50.62 72.54,-52.52 10.13,-1.9 -7.45,-3.08 -6.83,-6.19 z"
       style="opacity:0.1;fill:#ffffff"
       id="path50" />
    <path
       d="m 148,237.41 c 18.67,-8.81 -1.2,37.25 4.69,80.82 5.89,43.57 59,79 97.31,74.78 38.31,-4.22 62.05,-56 32.52,-75.72 0,0 30,1.49 36.65,32.54 6.65,31.05 -9,58.94 -31.77,60.55 -22.77,1.61 -34.68,16.29 -43.25,16.07 -8.57,-0.22 3.11,-4.73 -1.68,-10.91 -4.79,-6.18 -38.91,-0.63 -80.13,-20 -41.22,-19.37 -50.07,-39.24 -57.78,-67 -7.71,-27.76 8.92,4.37 17.48,-0.9 8.56,-5.27 0.67,-19.14 1.69,-32.7 1.02,-13.56 7,-26.54 15.1,-17.49 8.1,9.05 0.17,-35.8 9.17,-40.04 z"
       style="opacity:0.1;fill:#ffffff"
       id="path51" />
  </g>
  <g
     id="freepik--Stars--inject-89"
     style="display:inline">
    <polygon
       points="123.96,341.18 123.71,339.67 123.46,341.18 122.22,340.29 123.11,341.53 121.6,341.78 123.11,342.03 122.22,343.27 123.46,342.38 123.71,343.89 123.96,342.38 125.2,343.27 124.31,342.03 125.82,341.78 124.31,341.53 125.2,340.29 "
       style="fill:#263238"
       id="polygon51" />
    <polygon
       points="391.27,312.48 391.02,310.97 390.77,312.48 389.53,311.58 390.42,312.83 388.91,313.08 390.42,313.33 389.53,314.57 390.77,313.68 391.02,315.19 391.27,313.68 392.52,314.57 391.62,313.33 393.13,313.08 391.62,312.83 392.52,311.58 "
       style="fill:#263238"
       id="polygon52" />
    <polygon
       points="259.03,361.84 258.78,360.33 258.53,361.84 257.28,360.95 258.18,362.19 256.67,362.44 258.18,362.69 257.28,363.94 258.53,363.04 258.78,364.56 259.03,363.04 260.27,363.94 259.38,362.69 260.89,362.44 259.38,362.19 260.27,360.95 "
       style="fill:#263238"
       id="polygon53" />
    <polygon
       points="133.29,304.22 132.86,301.62 132.43,304.22 130.29,302.68 131.82,304.82 129.22,305.25 131.82,305.68 130.29,307.82 132.43,306.29 132.86,308.89 133.29,306.29 135.43,307.82 133.9,305.68 136.5,305.25 133.9,304.82 135.43,302.68 "
       style="fill:#263238"
       id="polygon54" />
    <polygon
       points="98.89,236.61 98.46,234.01 98.03,236.61 95.89,235.07 97.43,237.22 94.83,237.65 97.43,238.07 95.89,240.22 98.03,238.68 98.46,241.28 98.89,238.68 101.03,240.22 99.5,238.07 102.1,237.65 99.5,237.22 101.03,235.07 "
       style="fill:#263238"
       id="polygon55" />
    <polygon
       points="275.06,112.26 274.63,109.66 274.2,112.26 272.06,110.72 273.6,112.87 270.99,113.3 273.6,113.72 272.06,115.87 274.2,114.33 274.63,116.93 275.06,114.33 277.2,115.87 275.67,113.72 278.27,113.3 275.67,112.87 277.2,110.72 "
       style="fill:#263238"
       id="polygon56" />
    <polygon
       points="306.65,236.36 306.22,233.76 305.79,236.36 303.64,234.82 305.18,236.97 302.58,237.4 305.18,237.82 303.64,239.97 305.79,238.43 306.22,241.03 306.65,238.43 308.79,239.97 307.25,237.82 309.86,237.4 307.25,236.97 308.79,234.82 "
       style="fill:#263238"
       id="polygon57" />
    <polygon
       points="227.93,116.5 227.5,113.9 227.07,116.5 224.93,114.97 226.47,117.11 223.86,117.54 226.47,117.97 224.93,120.11 227.07,118.57 227.5,121.18 227.93,118.57 230.07,120.11 228.53,117.97 231.14,117.54 228.53,117.11 230.07,114.97 "
       style="fill:#263238"
       id="polygon58" />
    <polygon
       points="231.63,317.25 230.9,312.8 230.17,317.25 226.5,314.62 229.13,318.29 224.68,319.02 229.13,319.75 226.5,323.42 230.17,320.79 230.9,325.24 231.63,320.79 235.3,323.42 232.67,319.75 237.12,319.02 232.67,318.29 235.3,314.62 "
       style="fill:#263238"
       id="polygon59" />
    <polygon
       points="360.29,139.79 356.62,142.42 355.89,137.97 355.16,142.42 351.49,139.79 354.12,143.46 349.67,144.19 354.12,144.92 351.49,148.59 355.16,145.96 355.89,150.41 356.62,145.96 360.29,148.59 357.66,144.92 362.11,144.19 357.66,143.46 "
       style="fill:#263238"
       id="polygon60" />
    <polygon
       points="221.14,172.47 220.41,168.02 219.68,172.47 216.01,169.84 218.64,173.5 214.19,174.24 218.64,174.97 216.01,178.64 219.68,176.01 220.41,180.46 221.14,176.01 224.81,178.64 222.18,174.97 226.63,174.24 222.18,173.5 224.81,169.84 "
       style="fill:#263238"
       id="polygon61" />
    <polygon
       points="351.33,349.02 350.59,344.57 349.86,349.02 346.19,346.39 348.82,350.06 344.37,350.79 348.82,351.52 346.19,355.19 349.86,352.56 350.59,357.01 351.33,352.56 354.99,355.19 352.36,351.52 356.82,350.79 352.36,350.06 354.99,346.39 "
       style="fill:#263238"
       id="polygon62" />
    <polygon
       points="145.44,152.25 141.77,154.88 141.03,150.43 140.3,154.88 136.63,152.25 139.26,155.91 134.81,156.65 139.26,157.38 136.63,161.05 140.3,158.42 141.03,162.87 141.77,158.42 145.44,161.05 142.81,157.38 147.26,156.65 142.81,155.91 "
       style="fill:#263238"
       id="polygon63" />
    <polygon
       points="124.01,342.08 123.71,343.89 123.41,342.08 121.6,341.78 123.41,341.48 123.71,339.67 124.01,341.48 125.82,341.78 "
       style="opacity:0.2;fill:#ffffff"
       id="polygon64" />
    <polygon
       points="123.71,342.2 122.22,343.27 123.29,341.78 122.22,340.29 123.71,341.36 125.2,340.29 124.13,341.78 125.2,343.27 "
       style="opacity:0.2;fill:#ffffff"
       id="polygon65" />
    <path
       d="m 124.13,341.78 a 0.42,0.42 0 1 1 -0.42,-0.42 0.42,0.42 0 0 1 0.42,0.42 z"
       style="fill:#ffffff"
       id="path65" />
    <polygon
       points="391.32,313.38 391.02,315.19 390.72,313.38 388.91,313.08 390.72,312.78 391.02,310.97 391.32,312.78 393.13,313.08 "
       style="opacity:0.2;fill:#ffffff"
       id="polygon66" />
    <polygon
       points="391.02,313.5 389.53,314.57 390.6,313.08 389.53,311.58 391.02,312.65 392.52,311.58 391.44,313.08 392.52,314.57 "
       style="opacity:0.2;fill:#ffffff"
       id="polygon67" />
    <path
       d="m 391.44,313.08 a 0.42,0.42 0 0 1 -0.42,0.42 0.42,0.42 0 1 1 0,-0.84 0.42,0.42 0 0 1 0.42,0.42 z"
       style="fill:#ffffff"
       id="path67" />
    <polygon
       points="259.08,362.74 258.78,364.56 258.48,362.74 256.67,362.44 258.48,362.14 258.78,360.33 259.08,362.14 260.89,362.44 "
       style="opacity:0.2;fill:#ffffff"
       id="polygon68" />
    <polygon
       points="258.78,362.87 257.28,363.94 258.36,362.44 257.28,360.95 258.78,362.02 260.27,360.95 259.2,362.44 260.27,363.94 "
       style="opacity:0.2;fill:#ffffff"
       id="polygon69" />
    <path
       d="m 259.2,362.44 a 0.42,0.42 0 0 1 -0.84,0 0.42,0.42 0 1 1 0.84,0 z"
       style="fill:#ffffff"
       id="path69" />
    <polygon
       points="133.37,305.77 132.86,308.89 132.35,305.77 129.22,305.25 132.35,304.74 132.86,301.62 133.37,304.74 136.5,305.25 "
       style="opacity:0.2;fill:#ffffff"
       id="polygon70" />
    <polygon
       points="132.86,305.98 130.29,307.82 132.13,305.25 130.29,302.68 132.86,304.52 135.43,302.68 133.59,305.25 135.43,307.82 "
       style="opacity:0.2;fill:#ffffff"
       id="polygon71" />
    <circle
       cx="132.86"
       cy="305.25"
       r="0.72000003"
       style="fill:#ffffff"
       id="circle71" />
    <polygon
       points="98.98,238.16 98.46,241.28 97.95,238.16 94.83,237.65 97.95,237.13 98.46,234.01 98.98,237.13 102.1,237.65 "
       style="opacity:0.2;fill:#ffffff"
       id="polygon72" />
    <polygon
       points="98.46,238.37 95.89,240.22 97.73,237.65 95.89,235.07 98.46,236.92 101.03,235.07 99.19,237.65 101.03,240.22 "
       style="opacity:0.2;fill:#ffffff"
       id="polygon73" />
    <path
       d="m 99.19,237.65 a 0.73,0.73 0 0 1 -0.73,0.72 0.72,0.72 0 0 1 -0.72,-0.72 0.73,0.73 0 0 1 0.72,-0.73 0.73,0.73 0 0 1 0.73,0.73 z"
       style="fill:#ffffff"
       id="path73" />
    <polygon
       points="275.14,113.81 274.63,116.93 274.12,113.81 270.99,113.3 274.12,112.78 274.63,109.66 275.14,112.78 278.27,113.3 "
       style="opacity:0.2;fill:#ffffff"
       id="polygon74" />
    <polygon
       points="274.63,114.02 272.06,115.87 273.9,113.3 272.06,110.72 274.63,112.57 277.2,110.72 275.36,113.3 277.2,115.87 "
       style="opacity:0.2;fill:#ffffff"
       id="polygon75" />
    <circle
       cx="274.63"
       cy="113.3"
       r="0.72000003"
       style="fill:#ffffff"
       id="circle75" />
    <polygon
       points="306.73,237.91 306.22,241.03 305.7,237.91 302.58,237.4 305.7,236.88 306.22,233.76 306.73,236.88 309.86,237.4 "
       style="opacity:0.2;fill:#ffffff"
       id="polygon76" />
    <polygon
       points="306.22,238.12 303.64,239.97 305.49,237.4 303.64,234.82 306.22,236.67 308.79,234.82 306.94,237.4 308.79,239.97 "
       style="opacity:0.2;fill:#ffffff"
       id="polygon77" />
    <circle
       cx="306.22"
       cy="237.39999"
       r="0.72000003"
       style="fill:#ffffff"
       id="circle77" />
    <polygon
       points="228.01,118.05 227.5,121.18 226.99,118.05 223.86,117.54 226.99,117.02 227.5,113.9 228.01,117.02 231.14,117.54 "
       style="opacity:0.2;fill:#ffffff"
       id="polygon78" />
    <polygon
       points="227.5,118.27 224.93,120.11 226.77,117.54 224.93,114.97 227.5,116.81 230.07,114.97 228.23,117.54 230.07,120.11 "
       style="opacity:0.2;fill:#ffffff"
       id="polygon79" />
    <circle
       cx="227.5"
       cy="117.54"
       r="0.72000003"
       style="fill:#ffffff"
       id="circle79" />
    <polygon
       points="231.78,319.9 230.9,325.24 230.02,319.9 224.68,319.02 230.02,318.14 230.9,312.8 231.78,318.14 237.12,319.02 "
       style="opacity:0.2;fill:#ffffff"
       id="polygon80" />
    <polygon
       points="230.9,320.26 226.5,323.42 229.66,319.02 226.5,314.62 230.9,317.77 235.3,314.62 232.15,319.02 235.3,323.42 "
       style="opacity:0.2;fill:#ffffff"
       id="polygon81" />
    <path
       d="m 232.14,319 a 1.24,1.24 0 1 1 -1.24,-1.24 1.24,1.24 0 0 1 1.24,1.24 z"
       style="fill:#ffffff"
       id="path81" />
    <polygon
       points="356.77,145.07 355.89,150.41 355.01,145.07 349.67,144.19 355.01,143.31 355.89,137.97 356.77,143.31 362.11,144.19 "
       style="opacity:0.2;fill:#ffffff"
       id="polygon82" />
    <polygon
       points="355.89,145.44 351.49,148.59 354.65,144.19 351.49,139.79 355.89,142.95 360.29,139.79 357.13,144.19 360.29,148.59 "
       style="opacity:0.2;fill:#ffffff"
       id="polygon83" />
    <path
       d="m 357.13,144.19 a 1.24,1.24 0 1 1 -1.24,-1.24 1.25,1.25 0 0 1 1.24,1.24 z"
       style="fill:#ffffff"
       id="path83" />
    <polygon
       points="221.29,175.12 220.41,180.46 219.53,175.12 214.19,174.24 219.53,173.36 220.41,168.02 221.29,173.36 226.63,174.24 "
       style="opacity:0.2;fill:#ffffff"
       id="polygon84" />
    <polygon
       points="220.41,175.48 216.01,178.64 219.17,174.24 216.01,169.84 220.41,172.99 224.81,169.84 221.66,174.24 224.81,178.64 "
       style="opacity:0.2;fill:#ffffff"
       id="polygon85" />
    <path
       d="m 221.65,174.24 a 1.24,1.24 0 1 1 -1.24,-1.24 1.25,1.25 0 0 1 1.24,1.24 z"
       style="fill:#ffffff"
       id="path85" />
    <polygon
       points="351.47,351.67 350.59,357.01 349.71,351.67 344.37,350.79 349.71,349.91 350.59,344.57 351.47,349.91 356.82,350.79 "
       style="opacity:0.2;fill:#ffffff"
       id="polygon86" />
    <polygon
       points="350.59,352.04 346.19,355.19 349.35,350.79 346.19,346.39 350.59,349.55 354.99,346.39 351.84,350.79 354.99,355.19 "
       style="opacity:0.2;fill:#ffffff"
       id="polygon87" />
    <path
       d="m 351.83,350.79 a 1.24,1.24 0 0 1 -2.48,0 1.24,1.24 0 0 1 2.48,0 z"
       style="fill:#ffffff"
       id="path87" />
    <polygon
       points="141.91,157.53 141.03,162.87 140.16,157.53 134.81,156.65 140.16,155.77 141.03,150.43 141.91,155.77 147.26,156.65 "
       style="opacity:0.2;fill:#ffffff"
       id="polygon88" />
    <polygon
       points="141.03,157.89 136.63,161.05 139.79,156.65 136.63,152.25 141.03,155.4 145.44,152.25 142.28,156.65 145.44,161.05 "
       style="opacity:0.2;fill:#ffffff"
       id="polygon89" />
    <path
       d="m 142.27,156.65 a 1.24,1.24 0 1 1 -1.23,-1.24 1.24,1.24 0 0 1 1.23,1.24 z"
       style="fill:#ffffff"
       id="path89" />
    <polygon
       points="278.24,406.96 274.57,409.59 273.84,405.14 273.11,409.59 269.44,406.96 272.07,410.63 267.62,411.36 272.07,412.09 269.44,415.76 273.11,413.13 273.84,417.58 274.57,413.13 278.24,415.76 275.61,412.09 280.06,411.36 275.61,410.63 "
       style="fill:#263238"
       id="polygon90" />
    <polygon
       points="274.72,412.24 273.84,417.58 272.96,412.24 267.62,411.36 272.96,410.48 273.84,405.14 274.72,410.48 280.06,411.36 "
       style="opacity:0.2;fill:#ffffff"
       id="polygon91" />
    <polygon
       points="273.84,412.6 269.44,415.76 272.59,411.36 269.44,406.96 273.84,410.11 278.24,406.96 275.08,411.36 278.24,415.76 "
       style="opacity:0.2;fill:#ffffff"
       id="polygon92" />
    <path
       d="m 275.08,411.36 a 1.24,1.24 0 0 1 -2.48,0 1.24,1.24 0 1 1 2.48,0 z"
       style="fill:#ffffff"
       id="path92" />
    <polygon
       points="83.93,291.15 83.68,289.64 83.43,291.15 82.19,290.25 83.08,291.5 81.57,291.75 83.08,292 82.19,293.24 83.43,292.35 83.68,293.86 83.93,292.35 85.18,293.24 84.28,292 85.8,291.75 84.28,291.5 85.18,290.25 "
       style="fill:#263238"
       id="polygon93" />
    <polygon
       points="83.98,292.05 83.68,293.86 83.39,292.05 81.57,291.75 83.39,291.45 83.68,289.64 83.98,291.45 85.8,291.75 "
       style="opacity:0.2;fill:#ffffff"
       id="polygon94" />
    <polygon
       points="83.68,292.17 82.19,293.24 83.26,291.75 82.19,290.25 83.68,291.33 85.18,290.25 84.11,291.75 85.18,293.24 "
       style="opacity:0.2;fill:#ffffff"
       id="polygon95" />
    <path
       d="m 84.1,291.75 a 0.42,0.42 0 0 1 -0.42,0.42 0.42,0.42 0 0 1 0,-0.84 0.42,0.42 0 0 1 0.42,0.42 z"
       style="fill:#ffffff"
       id="path95" />
    <polygon
       points="204.01,267.13 203.76,265.62 203.51,267.13 202.27,266.24 203.16,267.49 201.65,267.73 203.16,267.98 202.27,269.23 203.51,268.33 203.76,269.85 204.01,268.33 205.25,269.23 204.36,267.98 205.87,267.73 204.36,267.49 205.25,266.24 "
       style="fill:#263238"
       id="polygon96" />
    <polygon
       points="204.06,268.03 203.76,269.85 203.46,268.03 201.65,267.73 203.46,267.44 203.76,265.62 204.06,267.44 205.87,267.73 "
       style="opacity:0.2;fill:#ffffff"
       id="polygon97" />
    <polygon
       points="203.76,268.16 202.27,269.23 203.34,267.73 202.27,266.24 203.76,267.31 205.25,266.24 204.18,267.73 205.25,269.23 "
       style="opacity:0.2;fill:#ffffff"
       id="polygon98" />
    <path
       d="m 204.18,267.73 a 0.42,0.42 0 1 1 -0.84,0 0.42,0.42 0 1 1 0.84,0 z"
       style="fill:#ffffff"
       id="path98" />
    <polygon
       points="162.98,213.1 162.73,211.59 162.48,213.1 161.24,212.21 162.13,213.45 160.62,213.7 162.13,213.95 161.24,215.19 162.48,214.3 162.73,215.81 162.98,214.3 164.23,215.19 163.33,213.95 164.84,213.7 163.33,213.45 164.23,212.21 "
       style="fill:#263238"
       id="polygon99" />
    <polygon
       points="163.03,214 162.73,215.81 162.43,214 160.62,213.7 162.43,213.4 162.73,211.59 163.03,213.4 164.84,213.7 "
       style="opacity:0.2;fill:#ffffff"
       id="polygon100" />
    <polygon
       points="162.73,214.12 161.24,215.19 162.31,213.7 161.24,212.21 162.73,213.28 164.23,212.21 163.16,213.7 164.23,215.19 "
       style="opacity:0.2;fill:#ffffff"
       id="polygon101" />
    <path
       d="m 163.15,213.7 a 0.42,0.42 0 0 1 -0.42,0.42 0.42,0.42 0 1 1 0,-0.84 0.42,0.42 0 0 1 0.42,0.42 z"
       style="fill:#ffffff"
       id="path101" />
  </g>
  <g
     id="freepik--Planets--inject-89"
     style="display:inline">
    <circle
       cx="152.88"
       cy="112.07"
       r="12.72"
       style="fill:#407bff"
       id="circle101" />
    <circle
       cx="152.88"
       cy="112.07"
       r="12.72"
       style="opacity:0.2;fill:#ffffff"
       id="circle102" />
    <path
       d="m 140.19,113 c 1.58,-0.76 2.35,-1.38 2.2,-0.52 a 9.11,9.11 0 0 0 0,2.25 c 0,0 0.26,0.5 1,0.28 0.74,-0.22 0.71,-0.33 1,-0.33 0.29,0 2.48,0.05 1.82,0.88 -0.66,0.83 -0.39,1.2 -1,1.37 -0.61,0.17 -0.83,1 -0.88,1.16 a 4.29,4.29 0 0 1 -0.65,0.71 l -1.38,0.53 a 12.48,12.48 0 0 0 1.48,1.78 11.69,11.69 0 0 0 1,0.89 2.71,2.71 0 0 1 1.21,-0.4 c 0.71,0 0.82,0.39 1.17,0.53 0.35,0.14 0.31,0 0.31,0 0,0 0.33,0.41 0.69,0.22 a 6.23,6.23 0 0 1 1.84,0 c 0.22,0 1.21,-0.44 1.65,-0.12 0.44,0.32 0.55,0.23 0.6,0.62 a 3.08,3.08 0 0 1 -0.56,1.92 12.39,12.39 0 0 0 4,-0.28 c -0.53,-0.32 -0.28,-2.36 -0.72,-3.24 -0.44,-0.88 -0.44,-1.1 -0.28,-1.48 0.16,-0.38 0.5,0 0.77,0 a 1,1 0 0 0 0.83,-0.94 6.35,6.35 0 0 1 0.27,-1.26 c 0,0 0.49,-0.93 0.72,-0.93 a 3.72,3.72 0 0 0 1.1,-0.06 c 0.21,-0.11 0.21,-0.27 0.32,-0.56 0.11,-0.29 0.17,-1.59 -0.11,-1.53 a 1.82,1.82 0 0 1 -0.82,-0.22 6.3,6.3 0 0 0 -1,-0.2 c -0.16,0 -0.22,-0.51 -0.22,-0.51 0,0 1,-0.61 1,-0.83 0,-0.22 -0.38,-0.27 -0.43,-0.93 -0.05,-0.66 0.49,-0.66 1.09,-0.54 0.6,0.12 0,0.26 0,0.78 0,0.52 0.06,0.47 0.72,0 0.66,-0.47 0.49,0 0.66,0 a 5.87,5.87 0 0 1 1,0.17 c 0,0 -0.06,1.35 0,2.72 0.06,1.37 2.08,0.06 2.69,-0.44 0.29,-0.23 1.14,-0.12 1.92,0.28 a 12.68,12.68 0 0 0 -2,-9.93 0.14,0.14 0 0 1 -0.15,0 c -0.24,-0.11 -1,0.11 -1.15,0 -0.15,-0.11 -0.88,0.16 -1.24,0 a 1.35,1.35 0 0 1 -0.66,-1.18 7.06,7.06 0 0 0 -0.58,-2 c -0.09,-0.24 -0.1,-0.35 0,-0.38 a 12.75,12.75 0 0 0 -10.26,-1.33 c 0.47,0.8 0.82,1.71 0.33,2.11 -1,0.77 -0.43,1.42 0.24,2 a 0.86,0.86 0 0 1 0,1.37 c -0.21,0.22 -0.6,0.77 -0.24,1 0.36,0.23 1.15,0.6 0.59,0.93 -0.56,0.33 -0.23,1.15 -1.17,0.44 -0.94,-0.71 -0.61,-1.37 -1.32,-1.37 -0.71,0 -0.82,0.82 -1.76,1.1 -0.94,0.28 -1,0.22 -1.26,0.1 -0.26,-0.12 -0.27,-0.82 -0.88,-1.42 a 0.85,0.85 0 0 0 -1.38,0.16 c -0.1,0.28 -0.28,1.56 0,1.72 0.28,0.16 0,1 -0.6,1.2 -0.6,0.2 -1.09,-0.71 -1.29,-0.14 a 0.49,0.49 0 0 0 0,0.14 c 0,0 0,0 0,0.06 a 12.39,12.39 0 0 0 -0.23,3.65 z m 13.09,6.18 c -0.88,0.22 0,0 -0.92,-1 -0.92,-1 0.52,-0.33 0.52,-0.33 a 12.81,12.81 0 0 0 0.4,-1.54 c 0.11,-0.66 0.93,0 1.39,0 0.46,0 0.92,0.66 0.38,1.54 0,0 0,0.55 -0.38,0.44 -0.38,-0.11 -0.51,0.62 -1.39,0.84 z m -0.4,1.49 c 0.26,-0.17 0.89,0.22 0.79,0.93 l -0.83,0.22 a 4.09,4.09 0 0 1 -0.79,-0.71 c -0.24,-0.37 0.57,-0.33 0.83,-0.49 z m -6.75,-9.79 c 0,-0.55 0.17,-1 0.61,-1 0.71,-0.17 0.88,0.5 1.51,0.56 0.63,0.06 0.36,1.73 0.36,1.73 0,0 0.22,0.85 -0.91,0.58 -1.13,-0.27 -1.73,-0.06 -1.84,-0.47 -0.11,-0.41 0.27,-0.9 0.27,-1.45 z"
       style="opacity:0.5;fill:#ffffff"
       id="path102" />
    <path
       d="m 173.15,106.73 a 1.94,1.94 0 1 1 -1.93,-1.93 1.93,1.93 0 0 1 1.93,1.93 z"
       style="isolation:isolate;fill:#407bff"
       id="path103" />
    <path
       d="m 173.15,106.73 a 1.94,1.94 0 1 1 -1.93,-1.93 1.93,1.93 0 0 1 1.93,1.93 z"
       style="opacity:0.6;fill:#ffffff"
       id="path104" />
    <circle
       cx="170.27"
       cy="107.4"
       r="0.38999999"
       style="opacity:0.1"
       id="circle104" />
    <path
       d="m 172.14,106.62 a 0.07,0.07 0 0 1 -0.07,0.07 0.07,0.07 0 1 1 0,-0.14 0.07,0.07 0 0 1 0.07,0.07 z"
       style="opacity:0.1"
       id="path105" />
    <path
       d="m 171.07,108.18 a 0.08,0.08 0 0 1 -0.07,0.07 0.07,0.07 0 1 1 0,-0.14 0.08,0.08 0 0 1 0.07,0.07 z"
       style="opacity:0.1"
       id="path106" />
    <path
       d="m 171.76,105.12 a 0.08,0.08 0 1 1 -0.15,0 0.08,0.08 0 0 1 0.07,-0.07 0.08,0.08 0 0 1 0.08,0.07 z"
       style="opacity:0.1"
       id="path107" />
    <path
       d="m 173,106.81 a 0.08,0.08 0 0 1 -0.08,0.07 0.07,0.07 0 0 1 -0.07,-0.07 0.08,0.08 0 0 1 0.07,-0.08 0.09,0.09 0 0 1 0.08,0.08 z"
       style="opacity:0.1"
       id="path108" />
    <path
       d="m 170,106.2 a 0.07,0.07 0 0 1 -0.07,0.07 0.07,0.07 0 1 1 0,-0.14 0.07,0.07 0 0 1 0.07,0.07 z"
       style="opacity:0.1"
       id="path109" />
    <path
       d="m 171,105.66 a 0.25,0.25 0 0 1 -0.25,0.25 0.25,0.25 0 0 1 0,-0.5 0.25,0.25 0 0 1 0.25,0.25 z"
       style="opacity:0.1"
       id="path110" />
    <path
       d="m 172.39,107.93 a 0.25,0.25 0 1 1 -0.25,-0.25 0.25,0.25 0 0 1 0.25,0.25 z"
       style="opacity:0.1"
       id="path111" />
    <path
       d="m 426.64,251.2 a 8.23,8.23 0 1 1 -6.24,9.8 8.23,8.23 0 0 1 6.24,-9.8 z"
       style="isolation:isolate;fill:#407bff"
       id="path112" />
    <path
       d="m 426.64,251.2 a 8.23,8.23 0 1 1 -6.24,9.8 8.23,8.23 0 0 1 6.24,-9.8 z"
       style="opacity:0.5;fill:#ffffff"
       id="path113" />
    <path
       d="m 435.81,255.61 c -0.15,0.24 -0.28,-0.09 -0.81,0.18 a 4.57,4.57 0 0 1 -1.64,0.39 l -0.12,0.23 c -0.11,0.24 -1.12,-0.15 -1.12,-0.54 0,-0.39 0,0 0.78,-0.23 0.78,-0.23 0,0 0.07,-0.56 0.07,-0.56 -0.22,-0.31 -0.54,-0.7 a 0.52,0.52 0 0 0 -0.73,-0.1 c -0.24,0.14 -0.21,0.41 -0.44,0.47 -0.23,0.06 -0.13,0.2 -0.23,0.27 -0.1,0.07 -0.26,0 -0.39,0 -0.13,0 -0.3,-0.11 -0.38,0 -0.08,0.11 -0.06,0.14 -0.08,0.2 a 1.15,1.15 0 0 1 -0.26,0 c -0.06,0 -0.13,-0.08 -0.13,-0.13 a 0.25,0.25 0 0 1 0,-0.1 1,1 0 0 1 0.17,-0.27 0.26,0.26 0 0 1 0.29,-0.08 0.27,0.27 0 0 0 -0.08,-0.26 h 0.32 c 0.08,0 0.31,-0.66 0.33,-0.76 a 0.24,0.24 0 0 0 -0.11,-0.21 c -0.09,-0.05 -0.2,0 -0.31,0 -0.11,0 -0.34,-0.31 -0.55,-0.28 a 0.52,0.52 0 0 0 -0.15,0.07 l -0.25,0.18 a 0.31,0.31 0 0 0 -0.11,0.08 0.9,0.9 0 0 0 0,0.16 0.13,0.13 0 0 1 -0.09,0.1 c 0.19,0 -0.07,0.19 -0.11,0.2 -0.2,0.07 -0.59,-0.07 -0.82,-0.09 a 0.16,0.16 0 0 1 -0.12,0 0.25,0.25 0 0 1 0,-0.09 c -0.06,-0.14 -0.11,-0.29 -0.16,-0.43 -0.05,-0.14 -0.16,-0.65 0.09,-0.79 0.25,-0.14 0.53,0 0.61,-0.26 a 0.18,0.18 0 0 1 0.05,-0.08 c 0.07,-0.06 0.15,0.08 0.14,0.18 a 1.29,1.29 0 0 0 0,0.48 c 0.06,0.16 0.27,0.26 0.39,0.16 -0.08,-0.12 0.08,-0.26 0.22,-0.26 0.14,0 0.3,0.07 0.43,0 a 0.32,0.32 0 0 0 0.14,-0.34 0.91,0.91 0 0 0 -0.17,-0.36 0.52,0.52 0 0 1 -0.51,-0.07 c -0.12,-0.09 -0.24,-0.25 -0.38,-0.19 a 1.46,1.46 0 0 0 0.16,-0.21 2.36,2.36 0 0 0 -0.28,-0.12 c -0.09,-0.05 -0.18,-0.15 -0.13,-0.25 a 0.16,0.16 0 0 1 0.07,-0.07 v 0 a 6.84,6.84 0 0 1 1.56,0.23 c -0.16,0.3 -0.2,0.85 0.55,1.12 1.09,0.39 0,0 1,-0.54 0,0 0,0 0,0 a 8.11,8.11 0 0 1 2.14,1.48 l -0.44,0.32 c -0.46,0.31 0.15,0.47 0.15,0.47 h 0.63 c 0.34,0 0.31,0 0.33,-0.07 a 7.77,7.77 0 0 1 1.02,1.47 z"
       style="opacity:0.1"
       id="path114" />
    <path
       d="m 423.49,256.14 a 0.48,0.48 0 0 1 0,0.12 c -0.06,0.21 -0.37,0.14 -0.58,0.2 -0.44,0.14 -0.33,0.91 -0.76,1.11 -0.21,0.09 -0.46,0 -0.67,0.09 a 2.08,2.08 0 0 0 -0.38,0.35 1,1 0 0 1 -0.83,0.24 8,8 0 0 1 1.79,-4.22 0.67,0.67 0 0 1 0.24,0 0.44,0.44 0 0 1 0.29,0.36 1.42,1.42 0 0 1 0,0.5 l 0.32,-0.24 a 0.31,0.31 0 0 1 0.08,0.44 c -0.1,0.14 -0.3,0.16 -0.48,0.19 -0.18,0.03 -0.38,0.13 -0.39,0.3 -0.01,0.17 0.1,0.27 0.19,0.38 0.09,0.11 0.18,0.28 0.1,0.4 l 0.7,-0.41 a 0.43,0.43 0 0 1 0.13,-0.05 0.27,0.27 0 0 1 0.25,0.24 z"
       style="opacity:0.2"
       id="path115" />
    <path
       d="m 424,255.05 -0.06,0.19 a 0.8,0.8 0 0 0 0.55,0 0.42,0.42 0 0 0 0.15,-0.11 0.6,0.6 0 0 0 0.12,-0.32 1.7,1.7 0 0 0 0,-0.45 0.48,0.48 0 0 0 -0.24,-0.36 0.29,0.29 0 0 0 -0.39,0.11 c -0.06,0.13 0,0.29 -0.07,0.42 -0.07,0.13 -0.2,0.16 -0.24,0.27 a 0.2,0.2 0 0 0 0.18,0.25 z"
       style="opacity:0.2"
       id="path116" />
    <path
       d="m 427.49,251.67 c -0.25,0.21 -0.65,-0.07 -0.95,0.07 -0.3,0.14 -0.24,0.29 -0.41,0.32 a 2.64,2.64 0 0 1 -0.28,0 c -0.1,0 -0.2,0.07 -0.19,0.16 a 0.23,0.23 0 0 0 0.07,0.11 l 0.25,0.23 a 0.7,0.7 0 0 1 0.08,0.1 0.21,0.21 0 0 1 -0.14,0.27 0.54,0.54 0 0 1 -0.33,0 0.65,0.65 0 0 1 -0.2,-0.05 c -0.06,0 -0.1,-0.13 -0.06,-0.19 l 0.07,-0.07 a 0.27,0.27 0 0 0 0.08,-0.24 0.19,0.19 0 0 0 -0.19,-0.17 l -0.13,0.06 -0.43,0.26 c -0.2,0.11 -0.45,0.23 -0.65,0.13 a 0.11,0.11 0 0 1 -0.09,-0.06 c 0,0 0,-0.08 0,-0.13 a 0.29,0.29 0 0 0 0,-0.16 7.92,7.92 0 0 1 2.65,-1.11 7.21,7.21 0 0 1 0.93,-0.15 v 0 0 c 0.06,0.23 0.08,0.49 -0.08,0.62 z"
       style="opacity:0.2"
       id="path117" />
    <path
       d="m 425.8,253.76 a 0.17,0.17 0 0 0 -0.23,0.15 l 0.1,0.16 v -0.09 c 0,0.09 0.11,0.18 0.19,0.11 a 0.21,0.21 0 0 0 0,-0.28 z"
       style="opacity:0.2"
       id="path118" />
    <path
       d="m 429.43,256.12 c -0.13,-0.14 -0.36,-0.09 -0.56,-0.07 -0.2,0.02 -0.45,-0.08 -0.44,-0.27 0.01,-0.19 0.21,-0.24 0.38,-0.25 a 0.5,0.5 0 0 0 -0.52,-0.53 0.62,0.62 0 0 1 0,0.5 0.3,0.3 0 0 1 -0.42,0.15 c -0.25,-0.19 0.06,-0.69 -0.18,-0.89 a 0.48,0.48 0 0 0 -0.41,0 c -0.48,0.11 -1,0.28 -1.19,0.74 0,0.05 -0.4,0 -0.52,0 -0.12,0 -0.19,0.37 -0.21,0.5 a 0.28,0.28 0 0 0 0,0.22 c 0,0.08 0.13,0.16 0.09,0.24 -0.04,0.08 -0.1,0.06 -0.14,0.11 -0.04,0.05 0.26,0.5 0.36,0.55 0.1,0.05 0.38,0 0.57,0.09 a 0.44,0.44 0 0 1 0.17,0.45 h -0.18 a 0.58,0.58 0 0 1 -0.2,0.68 0.78,0.78 0 0 1 0.71,0.22 c 0,0 0.09,0.1 0.15,0.1 a 0.22,0.22 0 0 0 0.11,-0.05 0.86,0.86 0 0 0 0.4,-0.54 h 0.2 c 0,-0.11 0,-0.29 -0.12,-0.25 -0.12,0.04 0,0 -0.07,0.06 -0.07,0.06 -0.26,0 -0.27,-0.17 a 0.62,0.62 0 0 1 0.14,-0.36 c 0.05,-0.06 0.09,-0.13 0.14,-0.2 a 0.76,0.76 0 0 1 0.42,-0.35 c 0.31,-0.07 0.56,0.26 0.71,0.54 0.06,0.12 0.09,0.31 0,0.33 -0.09,0.02 -0.14,-0.05 -0.19,0 -0.05,0.05 0,0.16 -0.1,0.21 -0.1,0.05 -0.11,0 -0.16,0 -0.05,0 -0.11,0.23 0,0.35 0.11,0.12 0.15,-0.07 0.23,-0.12 0.08,-0.05 0.38,0.08 0.56,0 0.18,-0.08 0.15,-0.15 0.22,-0.22 0.07,-0.07 0.54,-0.23 0.57,-0.49 0.03,-0.26 -0.1,-0.28 -0.13,-0.43 -0.03,-0.15 0.07,-0.66 -0.12,-0.85 z"
       style="opacity:0.2"
       id="path119" />
    <path
       d="m 423.53,258.07 a 0.51,0.51 0 0 0 0.25,0 c 0.12,0 0.51,0.11 0.35,0.33 -0.16,0.22 -0.41,-0.25 -0.62,-0.13 0.12,0 0.11,0.23 0.05,0.35 -0.06,0.12 -0.13,0.27 -0.05,0.38 0.16,-0.07 0.32,0.08 0.5,0.12 0.18,0.04 0.45,-0.13 0.68,-0.09 0,-0.08 0,-0.17 0,-0.26 0,-0.09 0.17,-0.07 0.25,-0.13 0.08,-0.06 0.18,-0.13 0.26,-0.07 0.08,0.06 0,-0.2 0,-0.29 a 1.51,1.51 0 0 1 -0.21,-0.23 c -0.05,-0.09 0,-0.23 0.06,-0.26 0.06,-0.03 0.19,0 0.27,0 a 0.21,0.21 0 0 0 0.1,-0.19 1.85,1.85 0 0 1 0,-0.23 h -0.19 a 0.16,0.16 0 0 1 -0.11,0.19 0.49,0.49 0 0 1 -0.24,0 1.36,1.36 0 0 0 -0.09,-0.69 h -0.25 c 0,0.1 -0.11,0.16 -0.21,0.16 a 0.55,0.55 0 0 1 -0.25,-0.13 c -0.05,-0.05 -0.11,-0.1 -0.18,-0.08 -0.07,0.02 -0.13,0.13 -0.12,0.23 0,0.36 -0.15,0.27 -0.3,0.47 a 0.4,0.4 0 0 0 0.05,0.55 z"
       style="opacity:0.1"
       id="path120" />
    <path
       d="m 423.7,261.53 a 1,1 0 0 1 -0.59,-0.08 c -0.08,-0.05 -0.18,-0.11 -0.27,-0.06 a 0.23,0.23 0 0 0 -0.1,0.24 c 0,0.08 0.09,0.16 0.12,0.25 a 0.84,0.84 0 0 1 0,0.74 1.41,1.41 0 0 1 -1.12,-0.26 0.87,0.87 0 0 1 -0.09,-0.11 c -0.07,-0.16 0.15,-0.34 0.11,-0.5 -0.04,-0.16 -0.35,-0.28 -0.25,-0.43 0.1,-0.15 0.19,-0.06 0.28,-0.1 a 0.21,0.21 0 0 0 0.09,-0.29 0.53,0.53 0 0 0 -0.67,0.19 c -0.17,0 -0.22,-0.25 -0.23,-0.41 -0.01,-0.16 -0.12,-0.4 -0.29,-0.34 a 0.19,0.19 0 0 0 -0.11,0.15 c -0.13,0.38 0.18,0.74 0.46,1 a 0.36,0.36 0 0 1 0.14,0.23 c 0,0.1 -0.06,0.21 -0.16,0.19 l 0.35,0.39 a 0.25,0.25 0 0 1 0.05,0.13 0.18,0.18 0 0 1 0,0.09 4.68,4.68 0 0 0 -0.27,0.4 7.59,7.59 0 0 1 -0.72,-2 8.48,8.48 0 0 1 -0.19,-1.93 0.59,0.59 0 0 1 0.22,-0.2 c 0.11,0 0.24,0 0.34,-0.06 0.25,-0.07 0.36,-0.39 0.61,-0.49 a 0.51,0.51 0 0 1 0.56,0.16 0.73,0.73 0 0 1 0.12,0.61 1,1 0 0 0 -0.06,0.5 c 0.1,0.29 0.46,0.32 0.76,0.31 a 0.42,0.42 0 0 0 0.23,0.45 0.3,0.3 0 0 0 0.39,-0.25 c 0.19,0 0.43,0.12 0.43,0.32 a 0.54,0.54 0 0 1 -0.22,0.3 c -0.08,0.1 -0.15,0.25 -0.07,0.35 0.08,0.1 0.35,0 0.42,0.17 0.07,0.17 -0.14,0.32 -0.27,0.34 z"
       style="opacity:0.1"
       id="path121" />
    <path
       d="m 430.22,267.27 h -0.26 a 0.58,0.58 0 0 1 0.05,-0.48 c 0.11,-0.16 0.31,-0.27 0.4,-0.45 a 1.87,1.87 0 0 1 0.16,-0.35 c 0.17,-0.27 0.57,-0.25 0.89,-0.2 a 0.31,0.31 0 0 1 0.13,-0.42 1.22,1.22 0 0 1 0.5,-0.08 0.62,0.62 0 0 0 0.46,-0.14 c 0,-0.05 0.08,-0.12 0.14,-0.14 h 0.14 l 0.9,0.11 c 0,-0.22 -0.24,-0.34 -0.45,-0.36 -0.21,-0.02 -0.46,0 -0.56,-0.22 a 1,1 0 0 1 -1.14,0.43 0.1,0.1 0 0 1 -0.08,0 c -0.09,-0.12 0.22,-0.27 0.12,-0.37 l -0.43,-0.17 c -0.06,0 -0.13,-0.05 -0.16,-0.11 -0.03,-0.06 0,-0.22 0.09,-0.33 0.09,-0.11 -0.05,-0.44 -0.11,-0.66 -0.06,-0.22 0,-0.54 0.25,-0.54 0.05,0 0.11,0 0.15,0 0.04,0 0.1,-0.16 0.12,-0.25 0.06,-0.27 0.33,-0.43 0.56,-0.59 a 1.62,1.62 0 0 0 0.19,-0.18 1.16,1.16 0 0 0 0.36,-0.78 1.57,1.57 0 0 0 -0.49,0.47 c -0.16,0.18 -0.4,0.33 -0.61,0.22 a 0.61,0.61 0 0 1 -0.41,0.66 0.59,0.59 0 0 1 -0.68,-0.36 0.23,0.23 0 0 1 0,-0.26 0.42,0.42 0 0 1 0.25,0 0.72,0.72 0 0 0 0.66,-0.34 0.93,0.93 0 0 1 -0.78,-0.4 0.6,0.6 0 0 1 0.19,-0.8 h -0.2 a 0.65,0.65 0 0 1 0.52,-0.49 c 0.13,0 0.25,0 0.37,0 a 0.28,0.28 0 0 0 0.23,-0.25 0.44,0.44 0 0 1 -0.2,-0.42 0.45,0.45 0 0 1 0.26,-0.31 0.16,0.16 0 0 1 -0.15,-0.13 0.23,0.23 0 0 1 0.17,-0.22 0.69,0.69 0 0 1 0.32,0 1.07,1.07 0 0 1 0.71,0.34 1,1 0 0 1 0.11,0.57 c 0,0.26 0,0.52 0,0.78 a 0.85,0.85 0 0 0 0.23,0.7 0.66,0.66 0 0 0 0.41,0.1 3,3 0 0 0 1.22,-0.25 0.93,0.93 0 0 0 0.49,-0.4 1.14,1.14 0 0 0 0.1,-0.61 c 0,-0.42 0.08,-1.09 -0.35,-1.35 a 0.38,0.38 0 0 0 -0.41,0 c -0.08,0.06 -0.14,0.15 -0.23,0.18 -0.09,0.03 -0.29,-0.05 -0.41,0 -0.12,0.05 -0.11,0.13 -0.17,0.21 a 0.19,0.19 0 0 1 -0.23,0.1 c -0.09,-0.05 0,-0.2 0,-0.31 0,-0.11 -0.17,-0.43 -0.13,-0.65 0.04,-0.22 0.25,-0.34 0.39,-0.5 a 2.11,2.11 0 0 0 0.33,-0.49 c 0.13,-0.06 0.28,0 0.4,0.12 a 0.42,0.42 0 0 0 0.41,0.08 c 0.11,0.14 -0.06,0.4 0.1,0.51 h 0.07 a 0.24,0.24 0 0 1 0,0.17 c 0,0.2 0.1,0.44 0.3,0.5 0,0 0.07,0 0.08,0 0.01,0 0,0 0,-0.06 a 1,1 0 0 0 -0.17,-0.75 1,1 0 0 1 -0.07,-0.15 0.28,0.28 0 0 1 0,-0.15 0.7,0.7 0 0 1 0.06,-0.17 0.3,0.3 0 0 1 0,-0.1 c 0.07,-0.06 0.17,0 0.25,0 a 0.6,0.6 0 0 0 0.22,-0.09 0.39,0.39 0 0 1 0.32,0 c 0.07,0.24 0.14,0.49 0.2,0.74 a 8.23,8.23 0 0 1 -6.1,9.84 z"
       style="opacity:0.2"
       id="path122" />
    <path
       d="m 429,264.68 a 1.21,1.21 0 0 0 0,0.5 0.85,0.85 0 0 1 -0.64,0.1 0.89,0.89 0 0 0 0.44,1.11 0.51,0.51 0 0 1 -0.48,0.09 1.47,1.47 0 0 1 -0.42,-0.28 l -1,-0.77 c -0.16,0.06 -0.06,0.31 0.1,0.39 0.16,0.08 0.35,0.09 0.43,0.24 0.08,0.15 0,0.45 0.09,0.61 a 1.61,1.61 0 0 0 0.26,0.15 0.47,0.47 0 0 1 0.17,0.49 v 0.13 a 7.93,7.93 0 0 1 -3.58,-1.05 v 0 a 1.23,1.23 0 0 0 0,-0.19 c 0,-0.3 0.28,-0.5 0.51,-0.68 a 0.9,0.9 0 0 0 0.44,-0.72 c -0.39,0.1 -0.54,0.59 -0.87,0.8 a 1.2,1.2 0 0 1 -0.28,0.13 2.88,2.88 0 0 0 -0.47,0.3 7.91,7.91 0 0 1 -2.07,-2.05 1.11,1.11 0 0 0 0.22,-0.75 c 0.09,-0.11 0.23,0.09 0.36,0.1 0.13,0.01 0.23,-0.19 0.38,-0.2 0.15,-0.01 0.21,0.43 0.44,0.51 0.23,0.08 0.3,-0.13 0.46,-0.15 0.16,-0.02 0.35,0.13 0.54,0.07 0.55,-0.17 0.14,-0.77 0.22,-1.11 0.05,-0.16 0.25,-0.19 0.38,-0.27 a 0.71,0.71 0 0 0 0.31,-0.58 2.4,2.4 0 0 0 -0.11,-0.66 0.69,0.69 0 0 1 0.05,-0.63 c 0.21,-0.23 0.62,-0.08 0.91,-0.23 0.29,-0.15 0.29,-0.43 0.5,-0.59 a 1.06,1.06 0 0 1 0.65,-0.19 0.55,0.55 0 0 1 0.18,0 c 0.11,0.06 0.09,0.23 0.07,0.34 a 5.53,5.53 0 0 1 -0.31,1 c 0.26,0.12 0.62,0.23 0.81,0 a 0.7,0.7 0 0 1 0.13,-0.17 0.37,0.37 0 0 1 0.34,0 c 0.09,0.2 0.19,0.39 0.29,0.57 a 1.17,1.17 0 0 0 -1.17,0.76 0.5,0.5 0 0 1 -0.08,0.2 0.35,0.35 0 0 1 -0.28,0.12 2.67,2.67 0 0 1 -0.94,-0.31 c -0.32,-0.1 -0.77,0 -0.85,0.28 0.26,-0.09 0.48,0.18 0.73,0.28 a 1.63,1.63 0 0 0 0.45,0.08 3.38,3.38 0 0 1 1.08,0.28 0.72,0.72 0 0 0 0.45,-0.62 1.33,1.33 0 0 0 1.06,0.56 1.73,1.73 0 0 0 0,1 c 0.12,0.24 0.36,0.46 0.35,0.73 a 0.38,0.38 0 0 0 -0.25,0.28 z"
       style="opacity:0.2"
       id="path123" />
    <path
       d="m 308.28,92.65 a 8.81,8.81 0 1 1 -6.68,10.52 8.81,8.81 0 0 1 6.68,-10.52 z"
       style="isolation:isolate;fill:#407bff"
       id="path124" />
    <path
       d="m 316.7,98.69 a 0.91,0.91 0 1 0 -0.9,-0.9 0.9,0.9 0 0 0 0.9,0.9 z"
       style="opacity:0.2"
       id="path125" />
    <path
       d="m 313.74,94.3 a 0.91,0.91 0 0 0 1.81,0 c 0,0 0,0 0,0 a 9,9 0 0 0 -1.24,-0.79 0.91,0.91 0 0 0 -0.57,0.79 z"
       style="opacity:0.2"
       id="path126" />
    <path
       d="m 304,102.7 a 1.39,1.39 0 1 0 1.39,1.39 1.4,1.4 0 0 0 -1.39,-1.39 z"
       style="opacity:0.2"
       id="path127" />
    <path
       d="m 318.59,98.6 a 9.35,9.35 0 0 0 -0.51,-1.27 1.1,1.1 0 0 0 0,0.18 1.4,1.4 0 0 0 0.51,1.09 z"
       style="opacity:0.2"
       id="path128" />
    <path
       d="m 303.38,98.48 a 1.39,1.39 0 0 0 -1,-1.32 8.88,8.88 0 0 0 -0.89,2.63 1.51,1.51 0 0 0 0.48,0.09 1.4,1.4 0 0 0 1.41,-1.4 z"
       style="opacity:0.2"
       id="path129" />
    <path
       d="m 317.62,102.37 a 1.39,1.39 0 0 0 1,1.34 8.86,8.86 0 0 0 0.38,-2.71 1.38,1.38 0 0 0 -1.38,1.37 z"
       style="opacity:0.2"
       id="path130" />
    <path
       d="M 309,96.6 A 1.39,1.39 0 1 0 307.57,98 1.4,1.4 0 0 0 309,96.6 Z"
       style="opacity:0.2"
       id="path131" />
    <circle
       cx="313.62"
       cy="104.74"
       r="0.89999998"
       style="opacity:0.2"
       id="circle131" />
    <path
       d="m 317,105.2 a 0.89,0.89 0 0 0 0.63,0.85 8.87,8.87 0 0 0 0.81,-1.56 0.89,0.89 0 0 0 -1.44,0.71 z"
       style="opacity:0.2"
       id="path132" />
    <path
       d="m 314.64,108.59 a 1.9,1.9 0 0 0 0,0.25 8.91,8.91 0 0 0 2.53,-2.24 2,2 0 0 0 -2.56,2 z"
       style="opacity:0.2"
       id="path133" />
    <path
       d="m 302.35,101.93 a 2.06,2.06 0 0 0 -0.9,-1.7 8.87,8.87 0 0 0 0.15,2.94 c 0,0.09 0,0.18 0.07,0.27 a 2,2 0 0 0 0.68,-1.51 z"
       style="opacity:0.2"
       id="path134" />
    <path
       d="m 306.47,93.39 c 0,0 0,-0.07 0,-0.11 a 8.83,8.83 0 0 0 -3.63,3.15 3.31,3.31 0 0 0 0.55,0 3.09,3.09 0 0 0 3.08,-3.04 z"
       style="opacity:0.2"
       id="path135" />
    <path
       d="m 310.66,93.84 a 2.07,2.07 0 0 0 1.81,-1.1 8.88,8.88 0 0 0 -3.71,-0.17 2,2 0 0 0 1.9,1.27 z"
       style="opacity:0.2"
       id="path136" />
    <path
       d="m 310.2,107.69 a 0.91,0.91 0 1 0 0.9,0.9 0.9,0.9 0 0 0 -0.9,-0.9 z"
       style="opacity:0.2"
       id="path137" />
    <path
       d="m 308.25,109.34 a 0.88,0.88 0 0 0 -0.68,0.32 9.92,9.92 0 0 0 1.53,0.33 0.88,0.88 0 0 0 -0.85,-0.65 z"
       style="opacity:0.2"
       id="path138" />
    <path
       d="m 304.68,107.21 a 0.9,0.9 0 0 0 -0.66,0.31 8.25,8.25 0 0 0 1.38,1.12 0.87,0.87 0 0 0 0.19,-0.52 0.91,0.91 0 0 0 -0.91,-0.91 z"
       style="opacity:0.2"
       id="path139" />
    <path
       d="m 315.05,99.71 a 0.21,0.21 0 1 0 -0.21,-0.21 0.22,0.22 0 0 0 0.21,0.21 z"
       style="opacity:0.2"
       id="path140" />
    <path
       d="m 316.27,96.33 a 0.21,0.21 0 0 0 0.21,-0.21 0.21,0.21 0 0 0 -0.21,-0.21 0.2,0.2 0 0 0 -0.2,0.21 0.21,0.21 0 0 0 0.2,0.21 z"
       style="opacity:0.2"
       id="path141" />
    <path
       d="m 317.86,99.71 a 0.21,0.21 0 1 0 -0.21,-0.21 0.21,0.21 0 0 0 0.21,0.21 z"
       style="opacity:0.2"
       id="path142" />
    <path
       d="m 310.63,94.52 a 0.2,0.2 0 0 0 0.2,-0.2 0.2,0.2 0 0 0 -0.2,-0.21 0.21,0.21 0 0 0 -0.21,0.21 0.2,0.2 0 0 0 0.21,0.2 z"
       style="opacity:0.2"
       id="path143" />
    <path
       d="m 308,98.28 a 0.2,0.2 0 0 0 -0.2,0.2 0.2,0.2 0 0 0 0.2,0.21 0.21,0.21 0 0 0 0.21,-0.21 0.2,0.2 0 0 0 -0.21,-0.2 z"
       style="opacity:0.2"
       id="path144" />
    <path
       d="m 306.59,104.09 a 0.2,0.2 0 0 0 -0.21,-0.2 0.2,0.2 0 0 0 -0.2,0.2 0.2,0.2 0 0 0 0.2,0.21 0.21,0.21 0 0 0 0.21,-0.21 z"
       style="opacity:0.2"
       id="path145" />
    <path
       d="m 303.17,101.73 a 0.21,0.21 0 1 0 0.21,-0.21 0.21,0.21 0 0 0 -0.21,0.21 z"
       style="opacity:0.2"
       id="path146" />
    <path
       d="m 312.24,102.72 a 0.21,0.21 0 1 0 0.21,-0.21 0.21,0.21 0 0 0 -0.21,0.21 z"
       style="opacity:0.2"
       id="path147" />
    <circle
       cx="312.23999"
       cy="100.18"
       r="0.20999999"
       style="opacity:0.2"
       id="circle147" />
    <path
       d="m 314.11,106.53 a 0.2,0.2 0 0 0 -0.2,0.21 0.2,0.2 0 0 0 0.2,0.2 0.2,0.2 0 0 0 0.21,-0.2 0.21,0.21 0 0 0 -0.21,-0.21 z"
       style="opacity:0.2"
       id="path148" />
    <path
       d="m 304.89,97.09 a 0.21,0.21 0 0 0 0,-0.42 0.21,0.21 0 1 0 0,0.42 z"
       style="opacity:0.2"
       id="path149" />
    <path
       d="m 309.29,96.8 a 0.2,0.2 0 0 0 0.21,-0.2 0.21,0.21 0 0 0 -0.21,-0.21 0.2,0.2 0 0 0 -0.2,0.21 0.2,0.2 0 0 0 0.2,0.2 z"
       style="opacity:0.2"
       id="path150" />
    <path
       d="m 309.09,107.21 a 0.21,0.21 0 1 0 0.2,0.21 0.21,0.21 0 0 0 -0.2,-0.21 z"
       style="opacity:0.2"
       id="path151" />
    <path
       d="m 308.6,104.74 a 0.2,0.2 0 0 0 -0.21,0.2 0.21,0.21 0 0 0 0.21,0.21 0.2,0.2 0 0 0 0.2,-0.21 0.2,0.2 0 0 0 -0.2,-0.2 z"
       style="opacity:0.2"
       id="path152" />
    <path
       d="m 303.58,105.9 a 0.2,0.2 0 0 0 -0.2,0.21 0.2,0.2 0 0 0 0.2,0.2 0.2,0.2 0 0 0 0.21,-0.2 0.21,0.21 0 0 0 -0.21,-0.21 z"
       style="opacity:0.2"
       id="path153" />
    <path
       d="m 311.58,109.29 a 0.21,0.21 0 1 0 0.21,0.21 0.21,0.21 0 0 0 -0.21,-0.21 z"
       style="opacity:0.2"
       id="path154" />
    <path
       d="m 312.72,97.07 a 0.48,0.48 0 1 0 -0.48,-0.47 0.47,0.47 0 0 0 0.48,0.47 z"
       style="opacity:0.2"
       id="path155" />
    <path
       d="m 312.72,94.79 a 0.48,0.48 0 1 0 -0.48,-0.47 0.47,0.47 0 0 0 0.48,0.47 z"
       style="opacity:0.2"
       id="path156" />
    <path
       d="m 307.57,94.79 a 0.5,0.5 0 0 0 0,-1 0.5,0.5 0 1 0 0,1 z"
       style="opacity:0.2"
       id="path157" />
    <path
       d="m 311.58,107.21 a 0.48,0.48 0 1 0 -0.48,0.48 0.47,0.47 0 0 0 0.48,-0.48 z"
       style="opacity:0.2"
       id="path158" />
    <path
       d="m 306.59,107.64 a 0.48,0.48 0 1 0 0.48,0.48 0.48,0.48 0 0 0 -0.48,-0.48 z"
       style="opacity:0.2"
       id="path159" />
    <circle
       cx="304.89001"
       cy="106.31"
       r="0.47999999"
       style="opacity:0.2"
       id="circle159" />
    <path
       d="m 312.72,108.12 a 0.48,0.48 0 1 0 0.47,0.47 0.47,0.47 0 0 0 -0.47,-0.47 z"
       style="opacity:0.2"
       id="path160" />
    <path
       d="m 309.5,102.21 a 0.48,0.48 0 1 0 -0.48,-0.48 0.49,0.49 0 0 0 0.48,0.48 z"
       style="opacity:0.2"
       id="path161" />
    <path
       d="m 316.27,103.67 a 0.48,0.48 0 1 0 -0.47,-0.47 0.47,0.47 0 0 0 0.47,0.47 z"
       style="opacity:0.2"
       id="path162" />
    <path
       d="m 305.37,101 a 0.48,0.48 0 1 0 0.47,0.47 0.47,0.47 0 0 0 -0.47,-0.47 z"
       style="opacity:0.2"
       id="path163" />
    <circle
       cx="303.38"
       cy="100.35"
       r="0.47999999"
       style="opacity:0.2"
       id="circle163" />
    <path
       d="m 134.91,370 a 50.65,50.65 0 0 1 5.24,-11.19 48.43,48.43 0 0 1 3.23,-4.63 52,52 0 0 1 10.53,-10.24 v 0 c 0.78,-0.56 1.52,-1.08 2.33,-1.6 a 42.35,42.35 0 0 1 5.23,-3 36.81,36.81 0 0 1 3.5,-1.62 50.22,50.22 0 0 1 5.24,-1.88 54.06,54.06 0 0 1 7.23,-1.59 v 0 a 56.32,56.32 0 0 1 9.15,-0.54 52.33,52.33 0 0 1 25.69,7.29 c 0,0 0.05,0 0.07,0 a 47.88,47.88 0 0 1 6.4,4.46 c 0.95,0.76 1.86,1.55 2.75,2.37 0.89,0.82 1.8,1.74 2.66,2.66 0.6,0.62 1.18,1.29 1.76,2 0.74,0.87 1.45,1.77 2.12,2.72 a 51.46,51.46 0 0 1 4,6.17 c 0.31,0.6 0.64,1.2 0.92,1.8 a 50.6,50.6 0 0 1 2.56,6.07 q 0.45,1.25 0.81,2.52 a 52.51,52.51 0 0 1 2,12 c 0.08,1.43 0.12,2.85 0.07,4.29 0,0.73 0,1.45 -0.1,2.16 -0.08,1.14 -0.18,2.28 -0.32,3.4 a 53.33,53.33 0 0 1 -1.34,6.77 38.65,38.65 0 0 1 -1.34,4.28 45.68,45.68 0 0 1 -2,4.94 51.4,51.4 0 0 1 -4.95,8.3 44.78,44.78 0 0 1 -3.59,4.45 52.85,52.85 0 0 1 -4.72,4.63 55.48,55.48 0 0 1 -5.5,4.16 51.65,51.65 0 0 1 -7.63,4.18 50.5,50.5 0 0 1 -6.13,2.3 v 0 a 50.46,50.46 0 0 1 -5,1.26 c 0,0 0,0 -0.06,0 a 52.88,52.88 0 0 1 -31.58,-3.39 v 0 c -1.4,-0.6 -2.78,-1.28 -4.1,-2 -0.94,-0.51 -1.88,-1.06 -2.78,-1.62 -1.13,-0.69 -2.19,-1.43 -3.25,-2.2 -0.54,-0.41 -1.08,-0.81 -1.61,-1.24 a 50.25,50.25 0 0 1 -5.4,-4.91 52.89,52.89 0 0 1 -12.36,-21 52.11,52.11 0 0 1 -2.26,-11.89 c -0.1,-1.68 -0.15,-3.4 -0.11,-5.12 a 45.36,45.36 0 0 1 0.36,-4.83 49,49 0 0 1 2.28,-10.69 z"
       style="isolation:isolate;fill:#407bff"
       id="path164" />
    <path
       d="m 134.91,370 a 50.65,50.65 0 0 1 5.24,-11.19 48.43,48.43 0 0 1 3.23,-4.63 52,52 0 0 1 10.53,-10.24 v 0 c 0.78,-0.56 1.52,-1.08 2.33,-1.6 a 42.35,42.35 0 0 1 5.23,-3 36.81,36.81 0 0 1 3.5,-1.62 50.22,50.22 0 0 1 5.24,-1.88 54.06,54.06 0 0 1 7.23,-1.59 v 0 a 56.32,56.32 0 0 1 9.15,-0.54 52.33,52.33 0 0 1 25.69,7.29 c 0,0 0.05,0 0.07,0 a 47.88,47.88 0 0 1 6.4,4.46 c 0.95,0.76 1.86,1.55 2.75,2.37 0.89,0.82 1.8,1.74 2.66,2.66 0.6,0.62 1.18,1.29 1.76,2 0.74,0.87 1.45,1.77 2.12,2.72 a 51.46,51.46 0 0 1 4,6.17 c 0.31,0.6 0.64,1.2 0.92,1.8 a 50.6,50.6 0 0 1 2.56,6.07 q 0.45,1.25 0.81,2.52 a 52.51,52.51 0 0 1 2,12 c 0.08,1.43 0.12,2.85 0.07,4.29 0,0.73 0,1.45 -0.1,2.16 -0.08,1.14 -0.18,2.28 -0.32,3.4 a 53.33,53.33 0 0 1 -1.34,6.77 38.65,38.65 0 0 1 -1.34,4.28 45.68,45.68 0 0 1 -2,4.94 51.4,51.4 0 0 1 -4.95,8.3 44.78,44.78 0 0 1 -3.59,4.45 52.85,52.85 0 0 1 -4.72,4.63 55.48,55.48 0 0 1 -5.5,4.16 51.65,51.65 0 0 1 -7.63,4.18 50.5,50.5 0 0 1 -6.13,2.3 v 0 a 50.46,50.46 0 0 1 -5,1.26 c 0,0 0,0 -0.06,0 a 52.88,52.88 0 0 1 -31.58,-3.39 v 0 c -1.4,-0.6 -2.78,-1.28 -4.1,-2 -0.94,-0.51 -1.88,-1.06 -2.78,-1.62 -1.13,-0.69 -2.19,-1.43 -3.25,-2.2 -0.54,-0.41 -1.08,-0.81 -1.61,-1.24 a 50.25,50.25 0 0 1 -5.4,-4.91 52.89,52.89 0 0 1 -12.36,-21 52.11,52.11 0 0 1 -2.26,-11.89 c -0.1,-1.68 -0.15,-3.4 -0.11,-5.12 a 45.36,45.36 0 0 1 0.36,-4.83 49,49 0 0 1 2.28,-10.69 z"
       style="opacity:0.2;fill:#ffffff"
       id="path165" />
    <path
       d="m 134.91,370 a 25.92,25.92 0 0 1 5,0.52 c 2.35,0.5 4.63,1.38 7,1.82 3,0.54 6.11,0.38 9.14,0.72 3.03,0.34 6.21,1.3 8.23,3.62 a 177.94,177.94 0 0 0 -22.1,2.51 c -3.19,0.57 -6.39,1.16 -9.58,1.46 A 49,49 0 0 1 134.91,370 Z"
       style="opacity:0.2"
       id="path166" />
    <path
       d="m 218.54,390.73 a 98.76,98.76 0 0 1 13.62,-1 55.32,55.32 0 0 1 6.16,0.46 c -0.08,1.14 -0.18,2.28 -0.32,3.4 h -0.51 a 48.52,48.52 0 0 1 -18.95,-2.86 z"
       style="opacity:0.2"
       id="path167" />
    <path
       d="m 193.31,373.92 a 5.92,5.92 0 0 1 2.55,-0.12 59.08,59.08 0 0 0 10.3,-0.17 c 3,-0.24 5.93,-0.57 8.89,-0.88 a 35.32,35.32 0 0 0 6.8,-1.18 27.17,27.17 0 0 1 3.71,-1.1 15.62,15.62 0 0 1 4.71,0.29 c 2,0.34 4,0.65 6,1 a 52.51,52.51 0 0 1 2,12 21.25,21.25 0 0 1 -4.06,-0.49 c -2.28,-0.52 -4.47,-1.5 -6.82,-1.76 -2.08,-0.22 -4.19,0.12 -6.28,0 a 37.18,37.18 0 0 1 -6.54,-1.24 c -7.49,-1.71 -15.37,-1.71 -22.57,-4.32 a 1.78,1.78 0 0 1 1.31,-2.03 z"
       style="opacity:0.2"
       id="path168" />
    <path
       d="m 153.91,343.87 c 0.78,-0.56 1.52,-1.08 2.33,-1.6 a 42.35,42.35 0 0 1 5.23,-3 36.81,36.81 0 0 1 3.5,-1.62 c 0.24,0 0.47,0.12 0.71,0.18 a 246.17,246.17 0 0 0 36.19,6.86 c 6.55,0.75 13.35,1.3 19.63,3.14 0.92,0.86 1.8,1.74 2.66,2.66 a 125.78,125.78 0 0 0 -20.37,-3.34 c -5.85,-0.38 -11.74,-0.1 -17.56,-0.66 -5.27,-0.49 -10.51,-1.68 -15.79,-1.4 -1.17,0.07 -2.34,0.19 -3.52,0.26 a 44,44 0 0 1 -11.72,-1.18 12.8,12.8 0 0 1 -1.29,-0.3 z"
       style="opacity:0.2"
       id="path169" />
    <path
       d="m 186.26,352.12 c 5.2,-1.07 10.61,-0.57 15.9,-0.07 a 123.12,123.12 0 0 0 18.31,0.75 c 1.82,-0.09 3.62,-0.28 5.45,-0.33 0.74,0.87 1.45,1.77 2.12,2.72 a 51.46,51.46 0 0 1 4,6.17 c 0.31,0.6 0.64,1.2 0.92,1.8 -0.55,-0.07 -1.08,-0.13 -1.57,-0.17 -3.12,-0.25 -6.23,-0.48 -9.32,-0.95 a 62.43,62.43 0 0 1 -7,-1.46 37.11,37.11 0 0 1 -5.41,-1.85 c -1.48,-0.64 -2.88,-1.4 -4.36,-2 a 52.6,52.6 0 0 0 -5.31,-1.8 c -4.49,-1.35 -9.05,-2.69 -13.73,-2.81 z"
       style="opacity:0.2"
       id="path170" />
    <path
       d="m 214.23,357 c 2.37,-0.55 4.85,0 7.22,-0.48 0.91,-0.18 1.76,-0.5 2.66,-0.73 a 18.94,18.94 0 0 1 3.93,-0.63 51.46,51.46 0 0 1 4,6.17 81.4,81.4 0 0 1 -8.92,-1.24 c -1.63,-0.32 -3.27,-0.68 -4.89,-1 -0.93,-0.21 -4.17,-0.45 -4.71,-1.11 -0.34,-0.37 0.25,-0.84 0.71,-0.98 z"
       style="opacity:0.2"
       id="path171" />
    <path
       d="m 143.38,354.13 a 52.66,52.66 0 0 1 5.24,-5.82 44.25,44.25 0 0 1 7.78,1.46 36,36 0 0 0 6.25,1.23 c 2.76,0.16 5.52,-0.42 8.29,-0.48 2.77,-0.06 5.76,0.45 7.69,2.46 -3.58,0.22 -7.17,0.46 -10.75,0.67 -6.23,0.36 -12.46,0.61 -18.71,0.58 -1.93,-0.01 -3.86,-0.03 -5.79,-0.1 z"
       style="opacity:0.2"
       id="path172" />
    <path
       d="m 157.76,342.67 c -0.38,-0.12 -0.92,-0.26 -1.52,-0.4 a 42.35,42.35 0 0 1 5.23,-3 53.58,53.58 0 0 0 8,1.42 c 4.48,0.47 9.3,0.47 13,3.11 l -5.81,-0.63 a 50,50 0 0 0 -11.65,-0.35 25.53,25.53 0 0 1 -4.34,0.43 13.26,13.26 0 0 1 -2.91,-0.58 z"
       style="opacity:0.2"
       id="path173" />
    <path
       d="m 170.21,335.77 a 54.06,54.06 0 0 1 7.23,-1.59 v 0 a 56.32,56.32 0 0 1 9.15,-0.54 52.33,52.33 0 0 1 25.69,7.36 c 0,0 0.05,0 0.07,0 a 47.88,47.88 0 0 1 6.4,4.46 c -3.54,0 -8.26,-1.38 -9.79,-1.64 -4,-0.69 -8.07,-1.39 -12.09,-2.14 C 187.94,340 179,338 170.21,335.77 Z"
       style="opacity:0.2"
       id="path174" />
    <path
       d="m 177.46,334.16 a 56.32,56.32 0 0 1 9.15,-0.54 52.33,52.33 0 0 1 25.67,7.38 7.06,7.06 0 0 0 -2.14,-0.26 c -0.69,0 -1.38,0.23 -2.08,0.33 a 17,17 0 0 1 -2.67,-0.05 62.49,62.49 0 0 1 -10,-1.48 c -3,-0.76 -5.78,-2 -8.67,-3 a 63,63 0 0 0 -9.26,-2.38 z"
       style="opacity:0.2"
       id="path175" />
    <path
       d="m 152.35,398.83 c 0.38,-0.63 1.22,-0.78 1.92,-1 2.94,-0.73 5.4,-2.69 8.15,-3.94 4.41,-2 9.39,-2.17 14.22,-2.31 a 66.3,66.3 0 0 1 8.1,0.11 57.1,57.1 0 0 1 7,1.28 c 5,1.17 9.9,2.57 14.8,4 9,2.63 18,5.41 27.24,7.18 a 14.24,14.24 0 0 1 1.56,0.43 45.68,45.68 0 0 1 -2,4.94 c -3,0.11 -6.27,-0.49 -9,-0.56 -8.2,-0.24 -16.29,1.82 -24.15,4.21 a 30.3,30.3 0 0 1 -7,1.57 c -3.23,0.18 -6.4,-0.73 -9.49,-1.63 -3.6,-1.08 -7.2,-2.16 -10.77,-3.27 a 35.16,35.16 0 0 1 -5.51,-2.1 c -1.5,-0.81 -2.89,-1.81 -4.35,-2.7 a 26.79,26.79 0 0 0 -7.6,-3.05 6.37,6.37 0 0 1 -2.41,-0.89 1.82,1.82 0 0 1 -0.71,-2.27 z"
       style="opacity:0.2"
       id="path176" />
    <path
       d="m 201.05,408.54 a 35.48,35.48 0 0 1 -9.93,0.67 59.63,59.63 0 0 1 -12.8,-1.25 59.49,59.49 0 0 1 -9.34,-3.44 c -1.83,-0.79 -3.77,-1.67 -4.82,-3.36 9.94,-6 22.59,-5.06 33.9,-2.37 6.94,1.65 13.73,3.86 20.51,6.08 -0.61,-0.2 -3.63,1.46 -4.45,1.65 a 10.62,10.62 0 0 1 -3.73,0 c -3.39,-0.2 -6.16,1.19 -9.34,2.02 z"
       style="opacity:0.2"
       id="path177" />
    <path
       d="m 134.57,402.44 a 25.84,25.84 0 0 1 3.61,0.47 c 2.08,0.43 4.54,1.7 4.38,3.82 5,-0.07 10.41,-0.05 14.55,2.78 -1.94,0.47 -3.88,0.94 -5.82,1.44 l 49.82,7.89 a 16.06,16.06 0 0 0 4.42,0.32 c 3.13,-0.29 5.84,-2.23 8.89,-3 3.75,-0.9 9.58,-0.09 13.92,1.67 a 44.78,44.78 0 0 1 -3.59,4.45 52.85,52.85 0 0 1 -4.72,4.63 55.48,55.48 0 0 1 -5.5,4.16 c -10.71,-0.91 -21.2,-3.84 -31.58,-6.76 3.86,-0.34 7.7,-0.68 11.56,-1 2.12,-0.2 4.4,-0.43 6,-1.83 q -9.39,-1.68 -18.87,-2.55 c -3.58,-0.32 -7.19,-0.56 -10.79,-0.79 q -9.27,-0.57 -18.54,-1.18 a 3,3 0 0 0 -1.69,0.19 1.1,1.1 0 0 0 -0.5,1.47 1.43,1.43 0 0 0 1,0.47 l 5.77,1.32 c 1.77,0.4 4,1.57 3.46,3.27 -3.28,0 -6.59,-0.11 -9.89,-0.18 -1.16,0 -2.34,0 -3.53,-0.1 a 52.89,52.89 0 0 1 -12.36,-20.96 z"
       style="opacity:0.2"
       id="path178" />
    <path
       d="m 152.33,428.34 a 37.7,37.7 0 0 1 8.36,-0.31 c 6.23,0.39 12.36,1.82 18.46,3.07 a 21,21 0 0 0 5,0.6 c 1.88,-0.06 3.73,-0.62 5.62,-0.63 2.95,0 5.73,1.2 8.49,2.2 1.65,0.59 5.58,1.05 8.67,2 a 50.5,50.5 0 0 1 -6.13,2.3 v 0 a 1.38,1.38 0 0 1 -0.16,-0.06 47.75,47.75 0 0 0 -11.78,-2.68 c -8.73,-1.24 -17.53,-2.45 -26.31,-1.81 a 12.8,12.8 0 0 0 -2.53,0.39 c -0.94,-0.51 -1.88,-1.06 -2.78,-1.62 -1.13,-0.69 -2.19,-1.43 -3.25,-2.2 -0.59,-0.42 -1.13,-0.82 -1.66,-1.25 z"
       style="opacity:0.2"
       id="path179" />
    <path
       d="m 209.2,424.08 c 4.68,-2.43 10.21,-2.35 15.55,-1.78 a 52.85,52.85 0 0 1 -4.72,4.63 46.26,46.26 0 0 1 -10.83,-2.85 z"
       style="opacity:0.2"
       id="path180" />
    <path
       d="m 164.09,435.41 c 7.8,-1.36 15.83,-0.44 23.49,1.42 a 81.65,81.65 0 0 1 8.09,2 52.88,52.88 0 0 1 -31.58,-3.39 z"
       style="opacity:0.2"
       id="path181" />
    <path
       d="m 153.94,429.58 c 0.52,-0.1 1.06,-0.14 1.59,-0.19 3.67,-0.32 7.46,-0.63 11,0.33 -2.53,-0.63 -6,0.79 -9.36,2.06 -1.11,-0.69 -2.17,-1.43 -3.23,-2.2 z"
       style="opacity:0.2"
       id="path182" />
    <path
       d="m 132.56,380.6 a 45.36,45.36 0 0 0 -0.36,4.83 c 0,1.72 0,3.44 0.11,5.12 a 13.43,13.43 0 0 0 3.8,0.11 c 5.95,-0.43 11.88,-0.85 17.83,-1.26 -1.91,-2.09 -5.12,-2.18 -7.93,-1.88 -2.81,0.3 -5.82,0.83 -8.35,-0.46 a 24.12,24.12 0 0 1 14.27,-4.14 c 3.48,0.11 6.93,1 10.36,0.64 3,-0.29 6,-1.53 9,-1.19 a 24.42,24.42 0 0 1 4.28,1.09 c 15.18,4.39 32.24,-4 47,1.69 q -13.7,1.55 -27.38,3 c 3.83,3.46 9.57,3.24 14.67,3.88 a 38.31,38.31 0 0 1 15.83,5.69 17.24,17.24 0 0 0 5.3,2.73 13.81,13.81 0 0 0 4.49,0 c 0.4,0 0.8,-0.09 1.2,-0.13 a 53.33,53.33 0 0 0 1.34,-6.77 c 0.14,-1.12 0.24,-2.26 0.32,-3.4 0.06,-0.71 0.08,-1.43 0.1,-2.16 0.05,-1.44 0,-2.86 -0.07,-4.29 a 52.51,52.51 0 0 0 -2,-12 q -0.36,-1.28 -0.81,-2.52 c -3.67,0 -7.39,0.44 -11,-0.23 -1.5,-0.28 -3,-0.73 -4.46,-1 a 33,33 0 0 0 -5.07,-0.37 l -34.12,-0.77 c -4.73,-0.11 -9.43,-0.21 -14.12,-0.76 a 106.07,106.07 0 0 1 32.05,-2.91 c 1.68,0.1 3.48,0.21 4.92,-0.66 -5.12,-3.73 -12.19,-2.3 -18.5,-3 -2.84,-0.29 -5.63,-1.06 -8.49,-1 -2.62,0.06 -5.19,0.76 -7.79,1.07 a 49.81,49.81 0 0 1 -8.46,0.08 c -6.75,-0.29 -13.52,-0.61 -20.3,-0.91 a 50.65,50.65 0 0 0 -5.31,11.28 49,49 0 0 0 -2.35,10.6 z M 158,363.24 a 26.79,26.79 0 0 1 6.53,-0.92 l 0.78,0.78 a 18.62,18.62 0 0 1 -11.18,1 c 1.27,-0.32 2.54,-0.59 3.87,-0.86 z"
       style="opacity:0.2"
       id="path183" />
    <path
       d="m 345.52,389.59 c -16.77,7.73 -28.25,18.56 -25.65,24.2 2.6,5.64 18.3,3.94 35.06,-3.79 16.76,-7.73 28.25,-18.57 25.65,-24.2 -2.6,-5.63 -18.3,-3.94 -35.06,3.79 z m 8.27,17.93 c -14.67,6.76 -28.27,8.51 -30.39,3.91 -2.12,-4.6 8.05,-13.8 22.71,-20.56 14.66,-6.76 28.26,-8.52 30.39,-3.92 2.13,4.6 -8.05,13.81 -22.71,20.57 z"
       style="fill:#407bff"
       id="path184" />
    <path
       d="m 345.52,389.59 c -16.77,7.73 -28.25,18.56 -25.65,24.2 2.6,5.64 18.3,3.94 35.06,-3.79 16.76,-7.73 28.25,-18.57 25.65,-24.2 -2.6,-5.63 -18.3,-3.94 -35.06,3.79 z m 8.27,17.93 c -14.67,6.76 -28.27,8.51 -30.39,3.91 -2.12,-4.6 8.05,-13.8 22.71,-20.56 14.66,-6.76 28.26,-8.52 30.39,-3.92 2.13,4.6 -8.05,13.81 -22.71,20.57 z"
       style="opacity:0.6;fill:#ffffff"
       id="path185" />
    <path
       d="m 345.92,390.46 c -13.53,6.24 -22.86,14.84 -20.84,19.21 2.02,4.37 14.61,2.86 28.14,-3.38 13.53,-6.24 22.86,-14.84 20.84,-19.21 -2.02,-4.37 -14.61,-2.86 -28.14,3.38 z m 6.41,13.91 c -11.83,5.45 -22.75,7 -24.4,3.42 -1.65,-3.58 6.62,-10.88 18.45,-16.34 11.83,-5.46 22.75,-7 24.4,-3.42 1.65,3.58 -6.62,10.88 -18.45,16.34 z"
       style="fill:#407bff"
       id="path186" />
    <path
       d="m 345.92,390.46 c -13.53,6.24 -22.86,14.84 -20.84,19.21 2.02,4.37 14.61,2.86 28.14,-3.38 13.53,-6.24 22.86,-14.84 20.84,-19.21 -2.02,-4.37 -14.61,-2.86 -28.14,3.38 z m 6.41,13.91 c -11.83,5.45 -22.75,7 -24.4,3.42 -1.65,-3.58 6.62,-10.88 18.45,-16.34 11.83,-5.46 22.75,-7 24.4,-3.42 1.65,3.58 -6.62,10.88 -18.45,16.34 z"
       style="opacity:0.5;fill:#ffffff"
       id="path187" />
    <path
       d="m 346.32,391.33 c -10.62,4.9 -17.94,11.67 -16.32,15.09 1.62,3.42 11.48,2.24 22.1,-2.66 10.62,-4.9 17.94,-11.64 16.36,-15.08 -1.58,-3.44 -11.52,-2.24 -22.14,2.65 z m 5,10.92 c -9.29,4.28 -17.87,5.49 -19.16,2.69 -1.29,-2.8 5.2,-8.54 14.48,-12.83 9.28,-4.29 17.87,-5.48 19.16,-2.68 1.29,2.8 -5.15,8.57 -14.44,12.82 z"
       style="fill:#407bff"
       id="path188" />
    <path
       d="m 346.32,391.33 c -10.62,4.9 -17.94,11.67 -16.32,15.09 1.62,3.42 11.48,2.24 22.1,-2.66 10.62,-4.9 17.94,-11.64 16.36,-15.08 -1.58,-3.44 -11.52,-2.24 -22.14,2.65 z m 5,10.92 c -9.29,4.28 -17.87,5.49 -19.16,2.69 -1.29,-2.8 5.2,-8.54 14.48,-12.83 9.28,-4.29 17.87,-5.48 19.16,-2.68 1.29,2.8 -5.15,8.57 -14.44,12.82 z"
       style="opacity:0.7;fill:#ffffff"
       id="path189" />
    <circle
       cx="350.22"
       cy="399.79001"
       r="15.96"
       transform="rotate(-70.92,350.22436,399.79364)"
       style="isolation:isolate;fill:#407bff"
       id="circle189" />
    <path
       d="m 338.62,388.85 v 0 a 16,16 0 0 1 13.07,-4.92 c 0.38,0 0.77,0.09 1.14,0.15 a 15.86,15.86 0 0 1 9.45,5.29 c 0.27,0.32 0.53,0.64 0.77,1 a 15.64,15.64 0 0 1 1.84,3.2 12.78,12.78 0 0 1 0.65,1.82 15.47,15.47 0 0 1 0.6,5.62 1.46,1.46 0 0 1 0,0.3 c -0.05,0.47 -0.1,0.92 -0.19,1.37 a 15.43,15.43 0 0 1 -1.51,4.44 11.72,11.72 0 0 1 -0.87,1.5 16,16 0 0 1 -14.78,7.12 15.45,15.45 0 0 1 -5,-1.33 v 0 a 1.88,1.88 0 0 1 -0.38,-0.18 14.62,14.62 0 0 1 -4.08,-2.81 c 0,0 -0.09,-0.07 -0.13,-0.12 a 15.09,15.09 0 0 1 -3.11,-4.19 7.08,7.08 0 0 1 -0.5,-1.09 7.66,7.66 0 0 1 -0.42,-1.05 12.75,12.75 0 0 1 -0.47,-1.74 15.61,15.61 0 0 1 -0.32,-4.85 15.81,15.81 0 0 1 4.24,-9.53 z"
       style="opacity:0.2;fill:#ffffff"
       id="path190" />
    <g
       style="opacity:0.2"
       id="g196">
      <path
         d="m 363.42,408.76 a 15.92,15.92 0 0 1 -14.65,6.93 15.35,15.35 0 0 1 -4.53,-1.11 c 5.09,-0.34 12.59,-1.2 19.18,-5.82 z"
         style="fill:#ffffff"
         id="path191" />
      <path
         d="m 350.53,396.67 c 3.4,-1.31 10.29,-2.85 13.38,-5.05 a 4.78,4.78 0 0 1 0.38,0.65 35.58,35.58 0 0 0 -4.81,4 c -3.42,3.12 -5.13,6 -10.81,6.22 -5.68,0.22 -1.93,-4.34 1.86,-5.82 z"
         style="fill:#ffffff"
         id="path192" />
      <path
         d="m 340.52,412.47 c 5,-0.63 17.06,-2.78 25.32,-9.3 -0.13,0.57 -0.29,1.12 -0.47,1.69 -5.24,2.67 -15,7.83 -23.23,8.68 a 14.17,14.17 0 0 1 -1.62,-1.07 z"
         style="fill:#ffffff"
         id="path193" />
      <path
         d="m 336.71,408.26 a 74,74 0 0 0 9.58,-2 c 6.43,-1.92 15.37,-6.46 19.49,-10 a 14.2,14.2 0 0 1 0.37,2.77 c -5.14,3.44 -17.56,11 -27.9,11.27 a 14.62,14.62 0 0 1 -1.54,-2.04 z"
         style="fill:#ffffff"
         id="path194" />
      <path
         d="m 336.47,391.74 a 9,9 0 0 1 0.74,-1.18 c 4.82,-1.43 14.1,-3.65 18.33,-5.8 a 13.31,13.31 0 0 1 1.86,0.79 c -5.27,1.21 -16.2,5.08 -20.93,6.19 z"
         style="fill:#ffffff"
         id="path195" />
      <path
         d="m 335.23,394.3 a 48.51,48.51 0 0 1 11.28,-2.23 c 2.58,0 10.22,-3 12.92,-5.3 a 5.24,5.24 0 0 1 0.61,0.47 c -6.62,2.79 -14.69,9.68 -18.41,11.68 a 40.78,40.78 0 0 1 -7.2,3.07 14.85,14.85 0 0 1 -0.11,-3.66 16.19,16.19 0 0 1 0.91,-4.03 z"
         style="fill:#ffffff"
         id="path196" />
    </g>
    <path
       d="m 334.64,403.18 a 35.77,35.77 0 0 0 3.44,-1 c 4.37,-1.48 12.25,-7.85 19.22,-10.78 2.62,-1.09 4.12,-1.72 5,-2.06 0.27,0.32 0.53,0.64 0.77,1 a 53.29,53.29 0 0 1 -6.2,3.1 c -4.44,1.86 -9.18,4.38 -11.91,6.66 -2.09,1.73 -7.37,4 -9.83,4.84 a 12.75,12.75 0 0 1 -0.49,-1.76 z"
       style="opacity:0.2"
       id="path197" />
    <path
       d="m 335.53,406 a 102.09,102.09 0 0 1 12.21,-2.25 c 6.92,-0.8 9.54,-3.87 12.37,-6.79 a 19.08,19.08 0 0 1 4.78,-3.41 12.78,12.78 0 0 1 0.65,1.82 48.18,48.18 0 0 1 -10.45,6.63 c -6.55,3.07 -15.65,4.56 -19.06,5.05 a 7.08,7.08 0 0 1 -0.5,-1.05 z"
       style="opacity:0.2"
       id="path198" />
    <path
       d="m 339.14,411.25 a 55.61,55.61 0 0 0 17.27,-5.17 c 4.45,-2.19 7.62,-3.92 9.73,-5.12 a 1.46,1.46 0 0 1 0,0.3 c -0.05,0.47 -0.1,0.92 -0.19,1.37 -5,2.67 -16.56,8.18 -26.66,8.74 -0.07,-0.01 -0.11,-0.07 -0.15,-0.12 z"
       style="opacity:0.2"
       id="path199" />
    <path
       d="m 338.62,388.83 a 16,16 0 0 1 13.07,-4.92 c 0.38,0 0.77,0.09 1.14,0.15 -3.4,1.58 -9.71,4.16 -14.21,4.77 z"
       style="opacity:0.2"
       id="path200" />
    <path
       d="m 343.35,414.18 c 4,-0.95 14.22,-3.52 18.57,-5.9 a 21.53,21.53 0 0 1 2.5,-1.21 11.72,11.72 0 0 1 -0.87,1.5 c -3.11,1.36 -9.12,3.85 -12.51,4.4 -3,0.48 -5.68,1 -7.29,1.39 v 0 a 1.88,1.88 0 0 1 -0.4,-0.18 z"
       style="opacity:0.2"
       id="path201" />
    <path
       d="m 356.85,386.83 c 0,0 -5.85,3.62 -8.48,4.06 a 32.08,32.08 0 0 1 -4.83,0.45 c 0,0 8.46,-4.34 13.31,-4.51 z"
       style="opacity:0.2"
       id="path202" />
    <path
       d="m 374.39,385.12 a 3.8,3.8 0 0 1 2.11,1.88 c 2.12,4.6 -8.05,13.81 -22.71,20.57 -14.66,6.76 -28.27,8.51 -30.39,3.91 a 3.76,3.76 0 0 1 0,-2.79 l -3.59,1.65 a 4.86,4.86 0 0 0 0.08,3.5 c 2.6,5.64 18.3,3.94 35.06,-3.79 16.76,-7.73 28.25,-18.57 25.65,-24.2 a 4.8,4.8 0 0 0 -2.61,-2.33 z"
       style="fill:#407bff"
       id="path203" />
    <path
       d="m 374.39,385.12 a 3.8,3.8 0 0 1 2.11,1.88 c 2.12,4.6 -8.05,13.81 -22.71,20.57 -14.66,6.76 -28.27,8.51 -30.39,3.91 a 3.76,3.76 0 0 1 0,-2.79 l -3.59,1.65 a 4.86,4.86 0 0 0 0.08,3.5 c 2.6,5.64 18.3,3.94 35.06,-3.79 16.76,-7.73 28.25,-18.57 25.65,-24.2 a 4.8,4.8 0 0 0 -2.61,-2.33 z"
       style="opacity:0.6;fill:#ffffff"
       id="path204" />
    <path
       d="m 370,387.13 a 2.39,2.39 0 0 1 0.75,0.9 c 1.64,3.57 -6.62,10.88 -18.45,16.34 -11.83,5.46 -22.75,7 -24.4,3.42 a 2.47,2.47 0 0 1 -0.2,-1.16 l -2.9,1.34 a 3.2,3.2 0 0 0 0.25,1.7 c 2,4.37 14.61,2.86 28.14,-3.38 13.53,-6.24 22.86,-14.84 20.84,-19.21 a 3.16,3.16 0 0 0 -1.13,-1.29 z"
       style="fill:#407bff"
       id="path205" />
    <path
       d="m 370,387.13 a 2.39,2.39 0 0 1 0.75,0.9 c 1.64,3.57 -6.62,10.88 -18.45,16.34 -11.83,5.46 -22.75,7 -24.4,3.42 a 2.47,2.47 0 0 1 -0.2,-1.16 l -2.9,1.34 a 3.2,3.2 0 0 0 0.25,1.7 c 2,4.37 14.61,2.86 28.14,-3.38 13.53,-6.24 22.86,-14.84 20.84,-19.21 a 3.16,3.16 0 0 0 -1.13,-1.29 z"
       style="opacity:0.5;fill:#ffffff"
       id="path206" />
    <path
       d="m 365.65,389.15 a 2.75,2.75 0 0 1 0.19,0.28 c 1.29,2.8 -5.19,8.54 -14.48,12.82 -9.29,4.28 -17.87,5.49 -19.16,2.69 a 3.18,3.18 0 0 1 -0.09,-0.33 l -2.34,1.08 a 2.25,2.25 0 0 0 0.19,0.73 c 1.58,3.43 11.48,2.24 22.1,-2.66 10.62,-4.9 17.94,-11.64 16.36,-15.08 A 2.55,2.55 0 0 0 368,388.07 Z"
       style="fill:#407bff"
       id="path207" />
    <path
       d="m 365.65,389.15 a 2.75,2.75 0 0 1 0.19,0.28 c 1.29,2.8 -5.19,8.54 -14.48,12.82 -9.29,4.28 -17.87,5.49 -19.16,2.69 a 3.18,3.18 0 0 1 -0.09,-0.33 l -2.34,1.08 a 2.25,2.25 0 0 0 0.19,0.73 c 1.58,3.43 11.48,2.24 22.1,-2.66 10.62,-4.9 17.94,-11.64 16.36,-15.08 A 2.55,2.55 0 0 0 368,388.07 Z"
       style="opacity:0.7;fill:#ffffff"
       id="path208" />
  </g>
  <g
     id="freepik--Rocket--inject-89"
     style="display:inline">
    <path
       d="M 57.14,248.45 53.39,250 a 6.75,6.75 0 0 0 1.15,5.09 5.62,5.62 0 0 0 4.05,2.09 l 2.6,-5 z"
       style="fill:#407bff"
       id="path209" />
    <path
       d="m 61.19,252.18 -2.61,5 A 5.42,5.42 0 0 1 55.5,256 5,5 0 0 1 54.5,255.09 6.68,6.68 0 0 1 53.39,250 l 3.75,-1.51 z"
       style="opacity:0.3;fill:#ffffff"
       id="path210" />
    <path
       d="m 61.19,252.18 -2.61,5 A 5.42,5.42 0 0 1 55.5,256 Z"
       style="opacity:0.1"
       id="path211" />
    <path
       d="M 60.68,253.15 57.31,257 c 0,0 0.8,3.17 3.87,3.35 3.07,0.18 4.24,-1.35 4.24,-1.35 l 0.16,-4.37 z"
       style="fill:#407bff"
       id="path212" />
    <path
       d="M 60.68,253.15 57.31,257 c 0,0 0.8,3.17 3.87,3.35 3.07,0.18 4.24,-1.35 4.24,-1.35 l 0.16,-4.37 z"
       style="opacity:0.3;fill:#ffffff"
       id="path213" />
    <path
       d="m 81.26,237.47 c -4.36,4.45 -10.14,20.91 -9.88,23.13 0.26,2.22 -6.33,6.07 -6.33,6.07 L 62.44,234 c 0,0 4.46,-3.89 6.39,-4.45 1.93,-0.56 6,3.92 9.32,1.15 3.32,-2.77 3.11,6.77 3.11,6.77 z"
       style="fill:#407bff"
       id="path214" />
    <path
       d="m 71.38,260.61 c 0.15,1.23 -1.83,3 -3.61,4.27 v 0 c -1.41,1 -2.69,1.78 -2.69,1.78 L 62.43,234 c 0,0 2.12,-1.84 4.07,-3.18 a 9.53,9.53 0 0 1 2.33,-1.27 c 1.93,-0.57 6,3.92 9.31,1.15 a 2.32,2.32 0 0 1 0.9,-0.49 c 1.2,-0.24 1.76,1.52 2,3.37 v 0 a 27.69,27.69 0 0 1 0.21,3.88 c -4.35,4.46 -10.12,20.92 -9.87,23.15 z"
       style="opacity:0.5;fill:#ffffff"
       id="path215" />
    <path
       d="m 71.38,260.61 c 0.15,1.23 -1.83,3 -3.61,4.27 2.18,-2.29 1.91,-4.51 2.36,-9.24 0.45,-4.73 3.19,-14 3.19,-14 a 15.2,15.2 0 0 0 -2.65,-7.11 c -1.56,-2.4 -3,-3.48 -4.17,-3.7 a 9.53,9.53 0 0 1 2.33,-1.27 c 1.93,-0.57 6,3.92 9.31,1.15 a 2.32,2.32 0 0 1 0.9,-0.49 l 2,3.37 v 0 a 27.69,27.69 0 0 1 0.21,3.88 c -4.35,4.45 -10.12,20.91 -9.87,23.14 z"
       style="opacity:0.1"
       id="path216" />
    <path
       d="m 57.13,248.46 c 0,0 23,-24.64 26.12,-26.55 3.12,-1.91 5.4,-1.25 5.4,-1.25 0,0 4.21,-1 5.53,-0.09 1.32,0.91 0.29,2.53 -2.51,6.37 -5.19,7.12 -27.12,28.74 -27.12,28.74 0,0 -7.3,-1.4 -7.42,-7.22 z"
       style="fill:#407bff"
       id="path217" />
    <path
       d="m 92.82,225.33 c -0.33,0.49 -0.72,1 -1.14,1.6 -5.2,7.13 -27.13,28.75 -27.13,28.75 0,0 -7.31,-1.4 -7.41,-7.23 0,0 23,-24.63 26.12,-26.53 a 9.12,9.12 0 0 1 3.32,-1.28 5.2,5.2 0 0 1 2.07,0 l 0.5,-0.12 c 0.32,-0.06 0.76,-0.15 1.26,-0.23 1.32,-0.19 3,-0.3 3.77,0.25 1.12,0.85 0.54,2.09 -1.36,4.79 z"
       style="opacity:0.7;fill:#ffffff"
       id="path218" />
    <path
       d="m 85.16,226.71 -0.53,-0.4 A 0.91,0.91 0 0 1 84.49,225 c 0.84,-1 2.21,-2.84 2.09,-4.36 a 5.2,5.2 0 0 1 2.07,0 l 0.5,-0.12 c 0.4,2.1 -1.71,4.84 -2.76,6 a 0.9,0.9 0 0 1 -1.23,0.19 z"
       style="opacity:0.5"
       id="path219" />
    <path
       d="m 92.82,225.33 a 6.67,6.67 0 0 1 -2.41,-5 c 1.32,-0.19 3,-0.3 3.77,0.25 1.12,0.81 0.54,2.05 -1.36,4.75 z"
       style="opacity:0.1"
       id="path220" />
    <g
       style="opacity:0.2"
       id="g227">
      <path
         d="m 66.68,250.32 -0.12,-0.34 a 1.46,1.46 0 0 0 0.92,-0.45 c 0.36,-0.36 0.37,-0.66 0.18,-0.83 -0.51,-0.51 -1.43,1.08 -2.21,0.31 -0.32,-0.31 -0.35,-0.83 0.19,-1.38 a 1.75,1.75 0 0 1 0.85,-0.5 l 0.14,0.34 a 1.39,1.39 0 0 0 -0.73,0.41 c -0.35,0.35 -0.36,0.65 -0.17,0.83 0.51,0.5 1.44,-1.08 2.2,-0.33 0.33,0.32 0.35,0.85 -0.2,1.4 a 1.7,1.7 0 0 1 -1.05,0.54 z"
         id="path221" />
      <path
         d="m 69.53,245.17 a 1.06,1.06 0 0 1 -0.13,1.6 l -0.51,0.51 0.64,0.63 -0.3,0.3 -2.09,-2.06 0.8,-0.82 a 1.06,1.06 0 0 1 1.59,-0.16 z m -0.29,0.3 c -0.3,-0.29 -0.67,-0.26 -1,0.12 l -0.5,0.51 0.94,0.93 0.5,-0.51 c 0.33,-0.39 0.35,-0.75 0.06,-1.05 z"
         id="path222" />
      <path
         d="m 72.31,244 -1.1,1.12 0.3,0.74 -0.3,0.31 -1.17,-3 0.3,-0.3 3,1.1 -0.31,0.32 z m -0.34,-0.13 -1.48,-0.55 0.59,1.46 z"
         id="path223" />
      <path
         d="m 72.73,242.55 a 1.49,1.49 0 0 1 0,-2.16 1.45,1.45 0 0 1 1.11,-0.48 v 0.38 a 1.13,1.13 0 0 0 -0.83,0.35 1.13,1.13 0 1 0 1.61,1.58 1.09,1.09 0 0 0 0.33,-0.84 h 0.38 a 1.43,1.43 0 0 1 -0.46,1.13 1.48,1.48 0 0 1 -2.14,0.04 z"
         id="path224" />
      <path
         d="m 77.6,239.16 0.26,0.26 -1.5,1.52 -2.09,-2.06 1.45,-1.48 0.26,0.26 -1.16,1.18 0.65,0.63 1,-1.05 0.25,0.25 -1,1.05 0.68,0.67 z"
         id="path225" />
      <path
         d="m 79.26,236.73 a 1,1 0 0 1 -0.13,1.44 1.63,1.63 0 0 1 -1,0.52 l -0.1,-0.37 a 1.29,1.29 0 0 0 0.84,-0.41 c 0.31,-0.32 0.34,-0.64 0.12,-0.86 -0.22,-0.22 -0.53,-0.23 -1,0.26 l -0.47,0.47 -1,-1.19 1.17,-1.18 0.26,0.26 -0.92,0.93 0.52,0.62 0.23,-0.23 c 0.6,-0.63 1.11,-0.62 1.48,-0.26 z"
         id="path226" />
      <path
         d="m 79.79,233.25 0.21,0.2 1.06,2.71 -0.32,0.32 -1,-2.63 -0.94,1 0.38,0.37 -0.28,0.29 -0.64,-0.62 z"
         id="path227" />
    </g>
    <path
       d="m 81.44,229.07 0.72,-0.75 a 0.89,0.89 0 0 1 1.21,-0.06 l 2.11,1.74 a 0.88,0.88 0 0 1 0.06,1.3 l -0.78,0.8 a 0.89,0.89 0 0 1 -1.23,0 l -2,-1.82 a 0.89,0.89 0 0 1 -0.09,-1.21 z"
       style="opacity:0.1"
       id="path228" />
  </g>
  <g
     id="freepik--Number--inject-89"
     style="display:inline">
    <path
       d="m 182.22,289.79 -10.29,2.78 3.6,13.3 -7.5,2 -3.6,-13.3 -30.08,8.15 -1.46,-5.42 18.11,-42.88 8.35,-2.26 -17.27,41.36 20.8,-5.63 -3.18,-11.75 7.27,-2 3.18,11.75 10.29,-2.78 z"
       style="fill:#407bff"
       id="path229" />
    <path
       d="m 183.13,274.77 c -4.78,-17.63 1.94,-30.24 14.62,-33.67 12.68,-3.43 24.76,4.09 29.53,21.72 4.77,17.63 -1.94,30.23 -14.55,33.64 -12.61,3.41 -24.83,-4.06 -29.6,-21.69 z m 36.42,-9.86 C 215.8,251.07 208,245.7 199.61,248 c -8.39,2.3 -12.5,10.85 -8.75,24.69 3.75,13.84 11.51,19.21 20,16.91 8.49,-2.3 12.43,-10.85 8.69,-24.69 z"
       style="fill:#407bff"
       id="path230" />
    <path
       d="m 285.51,261.82 -10.28,2.79 3.6,13.3 -7.5,2 -3.6,-13.3 -30.08,8.14 -1.47,-5.41 18.1,-42.91 8.35,-2.26 -17.27,41.36 20.8,-5.64 -3.16,-11.72 7.27,-2 3.16,11.83 10.28,-2.79 z"
       style="fill:#407bff"
       id="path231" />
  </g>
  <g
     id="freepik--Text--inject-89"
     style="display:inline">
    <path
       d="m 149.44,231.34 1.32,4.84 -20.2,5.47 -7.06,-26.09 19.71,-5.33 1.31,4.84 -13.71,3.71 1.53,5.67 12.11,-3.28 1.27,4.69 -12.11,3.28 1.64,6 z"
       style="fill:#407bff"
       id="path232" />
    <path
       d="m 172.18,230.38 -7,-5.91 -0.3,0.09 -5.25,1.44 2,7.27 -6,1.63 -7.06,-26.09 11.29,-3 c 7,-1.89 12.31,0.55 13.89,6.4 a 8.78,8.78 0 0 1 -3.13,9.68 l 8.12,6.81 z m -11.39,-19.63 -4.92,1.33 2.46,9.09 4.92,-1.33 c 3.69,-1 5.09,-3.22 4.32,-6.05 -0.77,-2.83 -3.09,-4.04 -6.78,-3.04 z"
       style="fill:#407bff"
       id="path233" />
    <path
       d="m 199.57,223 -7,-5.91 -0.3,0.08 -5.27,1.39 2,7.27 -6,1.64 -7.06,-26.09 11.29,-3.06 c 7,-1.88 12.31,0.55 13.89,6.4 a 8.8,8.8 0 0 1 -3.13,9.69 l 8.12,6.8 z m -11.39,-19.64 -4.92,1.33 2.46,9.1 4.92,-1.33 c 3.69,-1 5.09,-3.22 4.32,-6.05 -0.77,-2.83 -3.09,-4.08 -6.78,-3.08 z"
       style="fill:#407bff"
       id="path234" />
    <path
       d="m 205.17,207.45 c -2.1,-7.75 2.39,-15.12 10.62,-17.35 8.23,-2.23 15.82,1.84 17.93,9.62 2.11,7.78 -2.43,15.14 -10.62,17.36 -8.19,2.22 -15.83,-1.88 -17.93,-9.63 z m 22.43,-6.07 a 8.46,8.46 0 1 0 -5.9,10.56 8.24,8.24 0 0 0 5.9,-10.56 z"
       style="fill:#407bff"
       id="path235" />
    <path
       d="m 258.41,207 -7,-5.91 -0.3,0.08 -5.26,1.42 2,7.27 -6,1.64 -7.06,-26.09 11.21,-3.02 c 7,-1.88 12.31,0.55 13.89,6.4 a 8.78,8.78 0 0 1 -3.13,9.69 l 8.12,6.8 z M 247,187.4 l -4.92,1.34 2.46,9.09 4.92,-1.33 c 3.69,-1 5.09,-3.22 4.32,-6.05 -0.77,-2.83 -3.07,-4.04 -6.78,-3.05 z"
       style="fill:#407bff"
       id="path236" />
  </g>
  <g
     id="freepik--speech-bubble--inject-89"
     style="display:inline">
    <path
       d="m 327.79,368.62 h -42.74 a 8.84,8.84 0 0 1 -8.84,-8.85 v -15 a 8.84,8.84 0 0 1 8.84,-8.84 h 28.4 l 7,-8.9 -1,8.9 h 8.39 a 8.84,8.84 0 0 1 8.85,8.84 v 15 a 8.85,8.85 0 0 1 -8.9,8.85 z"
       style="fill:#407bff"
       id="path237" />
    <path
       d="m 287.14,351.55 a 5.07,5.07 0 1 1 5.09,4.88 4.86,4.86 0 0 1 -5.09,-4.88 z m 8.78,0 a 3.71,3.71 0 1 0 -3.69,3.67 3.58,3.58 0 0 0 3.69,-3.67 z"
       style="fill:#ffffff"
       id="path238" />
    <path
       d="m 298.51,352.71 a 3.75,3.75 0 1 1 3.76,3.69 3.59,3.59 0 0 1 -3.76,-3.69 z m 6.18,0 a 2.43,2.43 0 1 0 -4.86,0 2.43,2.43 0 1 0 4.86,0 z"
       style="fill:#ffffff"
       id="path239" />
    <path
       d="m 315.31,352.71 a 3.51,3.51 0 0 1 -3.66,3.69 3.07,3.07 0 0 1 -2.52,-1.17 V 359 h -1.31 v -9.9 h 1.26 v 1.15 a 3.05,3.05 0 0 1 2.57,-1.22 3.51,3.51 0 0 1 3.66,3.68 z m -1.33,0 a 2.43,2.43 0 1 0 -2.44,2.55 2.39,2.39 0 0 0 2.46,-2.55 z"
       style="fill:#ffffff"
       id="path240" />
    <path
       d="m 316.2,355.56 0.55,-1 a 4.59,4.59 0 0 0 2.53,0.75 c 1.22,0 1.72,-0.36 1.72,-1 0,-1.62 -4.56,-0.22 -4.56,-3.09 0,-1.3 1.15,-2.17 3,-2.17 a 5.25,5.25 0 0 1 2.63,0.66 l -0.56,1 a 3.82,3.82 0 0 0 -2.09,-0.57 c -1.14,0 -1.7,0.42 -1.7,1 0,1.71 4.58,0.32 4.58,3.12 0,1.31 -1.2,2.14 -3.12,2.14 a 5.21,5.21 0 0 1 -2.98,-0.84 z"
       style="fill:#ffffff"
       id="path241" />
    <path
       d="m 323.64,355.53 a 0.87,0.87 0 0 1 0.9,-0.87 0.87,0.87 0 0 1 0,1.74 0.87,0.87 0 0 1 -0.9,-0.87 z m 0.13,-8.75 h 1.53 l -0.25,6.53 h -1 z"
       style="fill:#ffffff"
       id="path242" />
  </g>
  <g
     id="freepik--Character--inject-89"
     style="display:inline">
    <path
       d="m 347.89,246.78 31.92,-2.31 0.28,-1.25 c 1,-4.92 4.78,-23.4 4.19,-35.15 a 24.72,24.72 0 0 0 -0.95,-6.18 c -3.9,-12.12 -42.18,-36.55 -42.18,-36.55 l -1.86,14.66 22.5,28.18 c -6.91,15.58 -13.9,38.6 -13.9,38.6 z"
       style="fill:#407bff"
       id="path243" />
    <path
       d="m 347.89,246.78 31.92,-2.31 0.28,-1.25 c 1,-4.92 4.78,-23.4 4.19,-35.15 a 24.72,24.72 0 0 0 -0.95,-6.18 c -3.9,-12.12 -42.18,-36.55 -42.18,-36.55 l -1.86,14.66 22.5,28.18 c -6.91,15.58 -13.9,38.6 -13.9,38.6 z"
       style="opacity:0.7;fill:#ffffff"
       id="path244" />
    <path
       d="m 322.16,287.11 c -4,2.73 -8,5.66 -12,8.46 -2,1.43 -4,2.8 -5.92,4.15 -1.92,1.35 -3.92,2.64 -5.66,3.67 -0.42,0.26 -0.85,0.5 -1.17,0.68 -0.32,0.18 -0.57,0.28 -0.51,0.32 a 1.42,1.42 0 0 1 0.36,0 h 0.09 -0.1 -0.2 l -0.82,0.15 -1.69,0.31 c -2.29,0.42 -4.7,0.76 -7.12,1.16 -4.84,0.77 -9.82,1.52 -14.75,2.62 h -0.09 a 4.58,4.58 0 0 0 -0.12,8.9 103.06,103.06 0 0 0 15.35,2.55 c 2.59,0.25 5.21,0.38 7.92,0.43 0.68,0 1.35,0 2.06,0 h 1.05 0.4 0.32 c 0.43,-0.06 0.86,-0.14 1.29,-0.22 a 23.85,23.85 0 0 0 3,-0.94 c 0.83,-0.31 1.54,-0.62 2.24,-0.92 2.74,-1.24 5,-2.53 7.38,-3.84 2.38,-1.31 4.5,-2.69 6.69,-4.07 4.35,-2.82 8.53,-5.67 12.64,-8.87 A 9.0237755,9.0237755 0 0 0 322.26,287 Z"
       style="fill:#407bff"
       id="path245" />
    <path
       d="m 322.16,287.11 c -4,2.73 -8,5.66 -12,8.46 -2,1.43 -4,2.8 -5.92,4.15 -1.92,1.35 -3.92,2.64 -5.66,3.67 -0.42,0.26 -0.85,0.5 -1.17,0.68 -0.32,0.18 -0.57,0.28 -0.51,0.32 a 1.42,1.42 0 0 1 0.36,0 h 0.09 -0.1 -0.2 l -0.82,0.15 -1.69,0.31 c -2.29,0.42 -4.7,0.76 -7.12,1.16 -4.84,0.77 -9.82,1.52 -14.75,2.62 h -0.09 a 4.58,4.58 0 0 0 -0.12,8.9 103.06,103.06 0 0 0 15.35,2.55 c 2.59,0.25 5.21,0.38 7.92,0.43 0.68,0 1.35,0 2.06,0 h 1.05 0.4 0.32 c 0.43,-0.06 0.86,-0.14 1.29,-0.22 a 23.85,23.85 0 0 0 3,-0.94 c 0.83,-0.31 1.54,-0.62 2.24,-0.92 2.74,-1.24 5,-2.53 7.38,-3.84 2.38,-1.31 4.5,-2.69 6.69,-4.07 4.35,-2.82 8.53,-5.67 12.64,-8.87 A 9.0237755,9.0237755 0 0 0 322.26,287 Z"
       style="opacity:0.7;fill:#ffffff"
       id="path246" />
    <path
       d="m 296.93,304.39 c 0,0 6.47,9.73 5,15.56 l 2,-0.66 c 0,0 -0.54,-10.72 -6.47,-15.22 z"
       style="fill:#407bff"
       id="path247" />
    <path
       d="m 270.72,309.13 -8.67,1.08 5.23,8.16 c 0,0 7.67,-1.43 6.77,-5.36 z"
       style="fill:#407bff"
       id="path248" />
    <polygon
       points="267.28,318.37 262.05,310.21 255.27,315.59 262.15,321.08 "
       style="fill:#407bff"
       id="polygon248" />
    <g
       style="opacity:0.5"
       id="g249">
      <path
         d="m 270.72,309.13 -8.67,1.08 5.23,8.16 c 0,0 7.67,-1.43 6.77,-5.36 z"
         style="fill:#ffffff"
         id="path249" />
      <polygon
         points="267.28,318.37 262.05,310.21 255.27,315.59 262.15,321.08 "
         style="fill:#ffffff"
         id="polygon249" />
    </g>
    <path
       d="m 270.72,309.13 c 0,0 3.55,4.33 0.6,8 l 1.17,0.48 c 0,0 4.71,-3 0.21,-8.92 z"
       style="fill:#407bff"
       id="path250" />
    <path
       d="m 296.93,304.39 c 0,0 6.47,9.73 5,15.56 l 2,-0.66 c 0,0 -0.54,-10.72 -6.47,-15.22 z"
       style="opacity:0.4;fill:#ffffff"
       id="path251" />
    <path
       d="m 270.72,309.13 c 0,0 3.55,4.33 0.6,8 l 1.17,0.48 c 0,0 4.71,-3 0.21,-8.92 z"
       style="opacity:0.4;fill:#ffffff"
       id="path252" />
    <path
       d="m 343,170.26 -1.46,8.5 c 0,0.42 -1.83,1.31 -2.26,1.28 v 0 l -9.63,-0.54 a 1.92,1.92 0 0 1 -1.68,-2.11 c 0.57,-4.2 1,-6.18 1.72,-11.48 0.4,-3.26 0.87,-9.74 2.11,-14.11 1.24,-4.37 5.53,-3 5.39,-1.07 -0.32,4.65 1.93,11.3 3.95,14.61 0.36,0.58 1.97,4.25 1.86,4.92 z"
       style="fill:#407bff"
       id="path253" />
    <path
       d="m 343.86,170.79 -2.94,8.72 c 0,0.42 -1.19,0.56 -1.62,0.53 v 0 l -9.63,-0.54 a 1.92,1.92 0 0 1 -1.68,-2.11 c 0.57,-4.2 1,-6.18 1.72,-11.48 0.4,-3.26 0.87,-9.74 2.11,-14.11 1.24,-4.37 5.53,-3 5.39,-1.07 -0.32,4.65 1.93,11.3 3.95,14.61 0.34,0.58 2.78,4.78 2.7,5.45 z"
       style="opacity:0.5;fill:#ffffff"
       id="path254" />
    <path
       d="m 380.09,243.22 c 1,-4.92 4.78,-23.4 4.19,-35.15 -2.86,4.84 -9.28,16.93 -10.28,29.39 -0.55,6.2 2.27,7.47 6.09,5.76 z"
       style="opacity:0.1"
       id="path255" />
    <path
       d="m 349.78,251.82 c 0,0 2.64,-19 22.59,-22.49 0,0 14.38,-18.34 32.46,-36.74 l -9.67,-50.37 10.45,-5.22 c 0,0 22.2,37.77 18.92,62.44 -3.28,24.67 -39.8,59.67 -39.8,59.67 z"
       style="fill:#407bff"
       id="path256" />
    <path
       d="m 349.78,251.82 c 0,0 2.64,-19 22.59,-22.49 0,0 14.38,-18.34 32.46,-36.74 l -9.67,-50.37 10.45,-5.22 c 0,0 22.2,37.77 18.92,62.44 -3.28,24.67 -39.8,59.67 -39.8,59.67 z"
       style="opacity:0.7;fill:#ffffff"
       id="path257" />
    <path
       d="m 383.18,232.13 a 6.83,6.83 0 0 1 -6.36,6.8 l -24,1.67 a 6.83,6.83 0 0 1 -7,-4.77 6.72,6.72 0 0 1 -0.3,-1.57 c 0,-0.16 0,-0.32 0,-0.48 a 6.82,6.82 0 0 1 6.35,-6.8 l 24,-1.67 a 6.84,6.84 0 0 1 7.28,6.34 c 0.02,0.16 0.03,0.35 0.03,0.48 z"
       style="fill:#407bff"
       id="path258" />
    <path
       d="m 382,230 a 6.83,6.83 0 0 1 -6.35,6.8 l -24,1.67 a 6.81,6.81 0 0 1 -5.83,-2.59 6.72,6.72 0 0 1 -0.3,-1.57 c 0,-0.16 0,-0.32 0,-0.48 a 6.82,6.82 0 0 1 6.35,-6.8 l 24,-1.67 a 6.81,6.81 0 0 1 5.83,2.59 6.72,6.72 0 0 1 0.3,1.57 c 0,0.11 0,0.27 0,0.48 z"
       style="opacity:0.2;fill:#ffffff"
       id="path259" />
    <path
       d="m 386.82,261 a 17.16,17.16 0 0 0 -12.15,-16.11 c -12.53,-4.3 -10.71,11.29 -10.71,11.29 l 22.34,5.74 z"
       style="fill:#407bff"
       id="path260" />
    <path
       d="m 386.82,261 a 17.16,17.16 0 0 0 -12.15,-16.11 c -12.53,-4.3 -10.71,11.29 -10.71,11.29 l 22.34,5.74 z"
       style="opacity:0.4;fill:#ffffff"
       id="path261" />
    <path
       d="m 370.88,245.84 c 0,0 12.63,3 15.18,13.34 2.55,10.34 -15.16,33 -22.53,37 -7.37,4 -36.83,7.87 -40.33,3.66 -12.06,-14.5 13.8,-38.03 22.69,-43.84 8.89,-5.81 24.99,-10.16 24.99,-10.16 z"
       style="fill:#407bff"
       id="path262" />
    <path
       d="m 323.2,299.86 a 2.38,2.38 0 0 0 0.58,0.49 c 2.29,1.46 8.63,1.61 15.68,1 8.87,-0.77 18.87,-2.73 23.35,-4.81 l 0.72,-0.35 c 5.69,-3.11 17.56,-17.35 21.49,-28.42 1.16,-3.26 1.62,-6.25 1,-8.6 -2.55,-10.32 -15.18,-13.34 -15.18,-13.34 0,0 -16.09,4.43 -25,10.2 -8.91,5.77 -34.7,29.3 -22.64,43.83 z"
       style="opacity:0.7;fill:#ffffff"
       id="path263" />
    <path
       d="m 323.78,300.35 c 2.29,1.46 8.63,1.61 15.68,1 14.56,-15.67 6.25,-27.7 6.25,-27.7 -12.25,-1.11 -20.86,15.74 -21.93,26.7 z"
       style="opacity:0.1"
       id="path264" />
    <path
       d="m 380.09,243.22 c 0,0 -2.09,-10.92 -4.59,-12.22 -2.5,-1.3 -29.22,1.07 -32.64,2.36 -3.42,1.29 -21.9,17.45 -23.14,22 -1.24,4.55 4.36,16.38 4.36,16.38 0,0 19.12,3.82 26.92,0.57 7.8,-3.25 27.08,-23.11 29.09,-29.09 z"
       style="fill:#407bff"
       id="path265" />
    <path
       d="m 324.08,271.73 c 0,0 19.12,3.81 26.92,0.56 7.8,-3.25 27.09,-23.08 29.08,-29.07 0,0 -2.13,-10.92 -4.58,-12.26 -2.45,-1.34 -29.21,1.08 -32.64,2.36 -3.43,1.28 -21.9,17.46 -23.13,22 a 9.83,9.83 0 0 0 0.1,4.19 c 0.99,5.31 4.25,12.22 4.25,12.22 z"
       style="opacity:0.5;fill:#ffffff"
       id="path266" />
    <path
       d="m 319.83,259.53 c 2.59,0.49 19.4,3.51 26.59,0.51 7.79,-3.26 27.08,-23.04 29.08,-29.04 -2.45,-1.33 -29.21,1.08 -32.64,2.36 -3.43,1.28 -21.9,17.46 -23.13,22 a 9.83,9.83 0 0 0 0.1,4.17 z"
       style="opacity:0.2;fill:#ffffff"
       id="path267" />
    <circle
       cx="320.60999"
       cy="279.23999"
       r="24.92"
       transform="rotate(-41.15,320.64304,279.24485)"
       style="fill:#263238"
       id="circle267" />
    <circle
       cx="320.60999"
       cy="279.23999"
       r="24.92"
       transform="rotate(-41.15,320.64304,279.24485)"
       style="opacity:0.7;fill:#ffffff"
       id="circle268" />
    <path
       d="m 329,301.64 a 23.92,23.92 0 1 0 -30.78,-14 23.93,23.93 0 0 0 30.78,14 z"
       style="opacity:0.2"
       id="path268" />
    <ellipse
       cx="332.06"
       cy="282.78"
       rx="17.98"
       ry="13.42"
       transform="rotate(-76.02,332.0624,282.77755)"
       style="opacity:0.3"
       id="ellipse268" />
    <path
       d="m 324,291.76 c 0,0 4.66,4.59 6.05,3.44 1.39,-1.15 4.08,2.39 6.33,0.38 2.25,-2.01 6.66,-7.88 4.43,-13.4 -2.23,-5.52 -16.32,1.31 -16.81,9.58 z"
       style="fill:#263238"
       id="path269" />
    <path
       d="m 324,291.76 c 0,0 4.67,4.59 6.05,3.44 a 1.45,1.45 0 0 1 1.44,-0.1 c 1.42,0.49 3.27,1.93 4.89,0.48 2.25,-2 6.65,-7.88 4.43,-13.4 -0.95,-2.37 -4.09,-2.46 -7.41,-1.15 a 17.35,17.35 0 0 0 -2.59,1.29 c -3.38,2.06 -6.38,5.39 -6.78,9 0.02,0.16 -0.03,0.31 -0.03,0.44 z"
       style="opacity:0.8;fill:#ffffff"
       id="path270" />
    <path
       d="m 324,291.76 c 0,0 4.67,4.59 6.05,3.44 a 1.45,1.45 0 0 1 1.44,-0.1 c 5.55,-3.32 3,-11.27 1.91,-14.07 a 17.35,17.35 0 0 0 -2.59,1.29 51.1,51.1 0 0 0 -6.78,9 c 0.02,0.16 -0.03,0.31 -0.03,0.44 z"
       style="opacity:0.2"
       id="path271" />
    <path
       d="m 314,291.38 a 2.83,2.83 0 0 0 0.51,0 c 4.78,-0.23 3.45,-9.8 1.13,-15.27 -1,-2.42 -2.43,-3.53 -3.7,-3.59 -1.62,-0.09 -3,1.49 -3.3,4.17 -0.18,1.8 1,4.27 0.8,5.47 -0.2,1.2 0.29,8.84 4.56,9.22 z"
       style="fill:#263238"
       id="path272" />
    <path
       d="m 314,291.38 a 2.83,2.83 0 0 0 0.51,0 c 4.78,-0.23 3.45,-9.8 1.13,-15.27 -1,-2.42 -2.43,-3.53 -3.7,-3.59 -1.62,-0.09 -3,1.49 -3.3,4.17 -0.18,1.8 1,4.27 0.8,5.47 -0.2,1.2 0.29,8.84 4.56,9.22 z"
       style="opacity:0.9;fill:#ffffff"
       id="path273" />
    <path
       d="m 314,291.38 a 2.83,2.83 0 0 0 0.51,0 c 4.78,-0.23 3.45,-9.8 1.13,-15.27 -1,-2.42 -2.43,-3.53 -3.7,-3.59 a 8,8 0 0 0 -1,0.86 c -1.59,1.57 0,7.67 0,9.27 -0.11,1.47 0.44,6.35 3.06,8.73 z"
       style="opacity:0.2"
       id="path274" />
    <path
       d="m 331.13,275.2 c 1.84,7.22 3.28,11.36 0.86,16.11 -3.65,7.15 -13.48,6.63 -17.45,0.09 -3.57,-5.89 -6,-16.71 0.08,-21.69 a 10.28,10.28 0 0 1 16.51,5.49 z"
       style="fill:#ebb376"
       id="path275" />
    <path
       d="m 321,280.53 c 0.18,0.58 0,1.14 -0.35,1.26 -0.35,0.12 -0.84,-0.25 -1,-0.83 -0.16,-0.58 0,-1.14 0.35,-1.26 0.35,-0.12 0.78,0.3 1,0.83 z"
       style="fill:#263238"
       id="path276" />
    <path
       d="m 314.42,282.57 c 0.18,0.57 0,1.14 -0.35,1.26 -0.35,0.12 -0.84,-0.26 -1,-0.84 -0.16,-0.58 0,-1.14 0.35,-1.25 0.35,-0.11 0.81,0.26 1,0.83 z"
       style="fill:#263238"
       id="path277" />
    <path
       d="m 316.59,282.21 a 21,21 0 0 1 -1.28,5.63 3.57,3.57 0 0 0 2.9,-0.39 z"
       style="fill:#d58745"
       id="path278" />
    <path
       d="m 319.1,276.71 a 0.4,0.4 0 0 1 0.37,0 2.88,2.88 0 0 0 2.55,0.38 0.36,0.36 0 0 1 0.47,0.19 0.34,0.34 0 0 1 -0.18,0.46 3.58,3.58 0 0 1 -3.24,-0.44 0.36,0.36 0 0 1 -0.1,-0.49 0.49,0.49 0 0 1 0.13,-0.1 z"
       style="fill:#263238"
       id="path279" />
    <path
       d="m 312.41,278.28 a 0.37,0.37 0 0 1 0.21,0 0.35,0.35 0 0 1 0.24,0.44 3.53,3.53 0 0 1 -2.2,2.37 0.38,0.38 0 0 1 -0.45,-0.24 0.35,0.35 0 0 1 0.24,-0.44 2.77,2.77 0 0 0 1.73,-1.9 0.32,0.32 0 0 1 0.23,-0.23 z"
       style="fill:#263238"
       id="path280" />
    <path
       d="m 323.64,291.05 c -0.16,0.11 -0.34,0.22 -0.52,0.32 l -3.51,-1.78 c 0,0 0.13,-0.2 0.35,-0.49 0.72,-1 2.45,-3.14 4,-3 a 2.8,2.8 0 0 1 0.52,0.13 2.73,2.73 0 0 1 1.5,1.17 c 0.47,0.89 0.16,2.11 -2.34,3.65 z"
       style="fill:#263238"
       id="path281" />
    <path
       d="m 324.5,286.28 -4.09,3 -0.45,-0.15 c 0.72,-1 2.45,-3.14 4,-3 a 2.8,2.8 0 0 1 0.54,0.15 z"
       style="fill:#ffffff"
       id="path282" />
    <path
       d="m 323.64,291.05 c -0.67,-1.47 1.16,-2.9 2.36,-3.6 0.45,0.84 0.14,2.06 -2.36,3.6 z"
       style="fill:#de5753"
       id="path283" />
    <path
       d="m 322.82,295.25 -0.31,-0.95 c 0.92,-0.31 3.48,-1.3 4.31,-2.19 a 52.89,52.89 0 0 0 3.86,-6.53 l 0.89,0.47 c -0.12,0.22 -2.88,5.52 -4,6.74 -1.12,1.22 -4.57,2.41 -4.75,2.46 z"
       style="fill:#263238"
       id="path284" />
    <path
       d="m 322.87,295.44 1.05,-0.4 a 0.71,0.71 0 0 0 0.42,-0.91 v 0 a 0.72,0.72 0 0 0 -0.92,-0.41 l -1.05,0.39 a 0.71,0.71 0 0 0 -0.41,0.91 v 0 a 0.71,0.71 0 0 0 0.91,0.42 z"
       style="fill:#263238"
       id="path285" />
    <path
       d="m 335.75,280.22 a 7,7 0 0 1 -2.07,5 c -1.77,1.73 -3.87,0.42 -4.38,-1.87 -0.47,-2.07 -0.11,-5.45 2.16,-6.32 a 3.21,3.21 0 0 1 4.29,3.19 z"
       style="fill:#ebb376"
       id="path286" />
    <path
       d="m 314.85,272.22 c 2.2,-0.7 7.95,-1.67 9.23,-0.5 1.28,1.17 3.95,15.17 6.81,16 2.86,0.83 7.9,-3.87 7.48,-8.11 a 9.5,9.5 0 0 0 -3.06,-6.3 c 0,0 -0.76,-11.14 -12.37,-10.28 -11.61,0.86 -14.43,10.36 -14.27,13.68 a 12.21,12.21 0 0 1 6.18,-4.49 z"
       style="fill:#263238"
       id="path287" />
    <path
       d="m 314.85,272.22 c 2.2,-0.7 7.95,-1.67 9.23,-0.5 1.28,1.17 3.95,15.17 6.81,16 2.86,0.83 7.9,-3.87 7.48,-8.11 a 9.5,9.5 0 0 0 -3.06,-6.3 c 0,0 -0.76,-11.14 -12.37,-10.28 -11.61,0.86 -14.43,10.36 -14.27,13.68 a 12.21,12.21 0 0 1 6.18,-4.49 z"
       style="opacity:0.9;fill:#ffffff"
       id="path288" />
    <path
       d="m 305.89,258.14 1.54,-0.42 a 28.69,28.69 0 0 1 14.6,-4.26 c 8.94,-0.27 22.11,7.83 24.34,23.52 0.09,0.6 0.15,1.15 0.19,1.66 a 12,12 0 0 1 0.09,1.37 v 0.05 a 11.13,11.13 0 0 1 -0.07,1.71 c -0.82,9.43 -8.66,16.53 -8.66,16.53 a 30.74,30.74 0 0 1 -10.2,6.33 L 326,303.58 c 16.07,-6.46 13.62,-24.06 13.62,-24.06 l -5.46,-10.33 c 0,0 -14.61,-16.61 -31.84,-6.83 l -0.71,-0.62 a 30.78,30.78 0 0 1 4.28,-3.6 z"
       style="fill:#407bff"
       id="path289" />
    <path
       d="m 301.58,261.74 0.7,0.61 c 17.24,-9.77 31.84,6.84 31.84,6.84 l 5.46,10.33 c 0,0 2.42,17.6 -13.58,24.06 l 1.77,1.06 a 31.39,31.39 0 0 0 4.58,-2.18 26.78,26.78 0 0 0 5.61,-4.16 c 0,0 7.84,-7.1 8.66,-16.53 a 10,10 0 0 0 0.07,-1.71 0.13,0.13 0 0 1 0,-0.06 c 0,-0.47 -0.05,-0.92 -0.1,-1.36 -0.05,-0.44 -0.1,-1.05 -0.19,-1.66 -2.22,-15.7 -15.4,-23.79 -24.34,-23.52 a 28.89,28.89 0 0 0 -14.51,4.2 l -0.09,0.06 -1.54,0.42 a 30.48,30.48 0 0 0 -4.34,3.6 z"
       style="opacity:0.7;fill:#ffffff"
       id="path290" />
    <path
       d="m 301.58,261.74 0.7,0.61 c 17.24,-9.77 31.84,6.84 31.84,6.84 l 5.46,10.33 c 0,0 2.42,17.6 -13.58,24.06 l 1.77,1.06 a 31.39,31.39 0 0 0 4.58,-2.18 c 4.32,-3.86 11.49,-15.85 8.29,-22.39 A 65.22,65.22 0 0 1 336,267.83 c 0,0 -12.91,-14.15 -28.5,-10.17 -0.53,0.13 -1.08,0.3 -1.63,0.48 a 30.48,30.48 0 0 0 -4.29,3.6 z"
       style="opacity:0.2"
       id="path291" />
    <path
       d="m 335.12,268 c 1.72,-0.64 3.72,0.05 5.4,1.63 a 7.59,7.59 0 0 1 3.53,9.45 c -0.23,2.29 -1.28,4.12 -3,4.77 -2.9,1.08 -6.57,-1.59 -8.21,-6 -1.64,-4.41 -0.61,-8.73 2.28,-9.85 z"
       style="fill:#407bff"
       id="path292" />
    <path
       d="m 335.12,268 c 1.72,-0.64 3.72,0.05 5.4,1.63 a 7.59,7.59 0 0 1 3.53,9.45 c -0.23,2.29 -1.28,4.12 -3,4.77 -2.9,1.08 -6.57,-1.59 -8.21,-6 -1.64,-4.41 -0.61,-8.73 2.28,-9.85 z"
       style="opacity:0.5;fill:#ffffff"
       id="path293" />
    <path
       d="m 336.83,276.43 c 1.13,3 3.67,4.87 5.68,4.12 2.01,-0.75 2.7,-3.81 1.57,-6.84 -1.13,-3.03 -3.67,-4.87 -5.67,-4.12 -2,0.75 -2.71,3.81 -1.58,6.84 z"
       style="opacity:0.2;fill:#ffffff"
       id="path294" />
    <path
       d="m 301.36,268.77 a 34.46,34.46 0 0 1 5.19,1.13 32.13,32.13 0 0 1 7.64,-7.51 c 0,0 -2.68,-1.26 -7.8,-0.08 a 22.32,22.32 0 0 0 -5.03,6.46 z"
       style="opacity:0.2;fill:#ffffff"
       id="path295" />
    <path
       d="m 300.14,287.42 a 34.6,34.6 0 0 1 5.37,-16 c -1.64,-0.72 -3.23,-1.38 -4.52,-1.88 -2.18,4.74 -3.79,11.27 -0.85,17.88 z"
       style="opacity:0.2;fill:#ffffff"
       id="path296" />
    <path
       d="m 406.66,139.11 -10.21,6.58 a 0.76,0.76 0 0 1 -1.07,-0.18 v 0 l -5.71,-7.77 a 1.91,1.91 0 0 1 0.55,-2.63 c 3.6,-2.24 5.44,-3.13 10,-6 2.77,-1.77 8.06,-5.53 12.22,-7.36 4.16,-1.83 5.86,2.34 4.26,3.48 -3.79,2.72 -7.48,8.68 -8.75,12.35 a 3,3 0 0 1 -1.29,1.53 z"
       style="fill:#407bff"
       id="path297" />
    <path
       d="m 406.66,139.11 -10.21,6.58 a 0.76,0.76 0 0 1 -1.07,-0.18 v 0 l -5.71,-7.77 a 1.91,1.91 0 0 1 0.55,-2.63 c 3.6,-2.24 5.44,-3.13 10,-6 2.77,-1.77 8.06,-5.53 12.22,-7.36 4.16,-1.83 5.86,2.34 4.26,3.48 -3.79,2.72 -7.48,8.68 -8.75,12.35 a 3,3 0 0 1 -1.29,1.53 z"
       style="opacity:0.5;fill:#ffffff"
       id="path298" />
    <polygon
       points="395.37,146.66 394.71,144.91 407.66,138.07 408.44,140.16 "
       style="fill:#407bff"
       id="polygon298" />
    <path
       d="m 341,165 c 0,0 3.06,9.84 -2.31,15.37 l 1.84,1.17 c 0,0 6.6,-6.74 2.61,-15.38 z"
       style="fill:#407bff"
       id="path299" />
    <path
       d="m 404.17,193.26 0.4,-2 c 0,0 8.61,-5.86 20.23,0.48 v 4.28 c 0,0 -9.8,-6.89 -20.63,-2.76 z"
       style="fill:#407bff"
       id="path300" />
    <path
       d="m 382.35,199.25 c 0,0 -10.66,14.29 -21,10 l -0.34,-2 c 0,0 9.33,3.46 19.31,-10.51 z"
       style="fill:#407bff"
       id="path301" />
    <path
       d="m 362.81,296.55 0.72,-0.35 c 5.69,-3.11 17.56,-17.35 21.49,-28.42 -6,1.62 -21.34,6.05 -26.11,10.58 -5.65,5.36 -2.91,16.41 3.9,18.19 z"
       style="opacity:0.1"
       id="path302" />
    <path
       d="m 341,165 c 0,0 3.06,9.84 -2.31,15.37 l 1.84,1.17 c 0,0 6.6,-6.74 2.61,-15.38 z"
       style="opacity:0.4;fill:#ffffff"
       id="path303" />
    <path
       d="m 382.35,199.25 c 0,0 -10.66,14.29 -21,10 l -0.34,-2 c 0,0 9.33,3.46 19.31,-10.51 z"
       style="opacity:0.4;fill:#ffffff"
       id="path304" />
    <polygon
       points="395.37,146.66 394.71,144.91 407.66,138.07 408.44,140.16 "
       style="opacity:0.4;fill:#ffffff"
       id="polygon304" />
    <path
       d="m 404.17,193.26 0.4,-2 c 0,0 8.61,-5.86 20.23,0.48 v 4.28 c 0,0 -9.8,-6.89 -20.63,-2.76 z"
       style="opacity:0.4;fill:#ffffff"
       id="path305" />
    <path
       d="m 380.09,281.18 a 1.5,1.5 0 0 1 -0.73,-2.81 c 3.67,-2 5.63,-4.59 6,-7.85 1.15,-9.9 -12.65,-22.5 -12.79,-22.63 a 1.5,1.5 0 1 1 2,-2.22 c 0.62,0.56 15.08,13.78 13.76,25.2 -0.49,4.23 -3,7.64 -7.54,10.12 a 1.46,1.46 0 0 1 -0.7,0.19 z"
       style="fill:#407bff"
       id="path306" />
    <path
       d="m 378.33,287 a 1.51,1.51 0 0 1 -1.26,-2.32 c 9.78,-15.11 -8.61,-28.56 -9.4,-29.12 a 1.5013411,1.5013411 0 1 1 1.75,-2.44 c 0.21,0.15 21.5,15.68 10.17,33.19 a 1.48,1.48 0 0 1 -1.26,0.69 z"
       style="fill:#407bff"
       id="path307" />
    <path
       d="m 363.49,295.77 c 4.71,-1.07 9.54,-2.3 14.26,-3.43 2.36,-0.59 4.71,-1.13 7,-1.66 2.29,-0.53 4.62,-1 6.62,-1.32 0.49,-0.08 1,-0.15 1.34,-0.19 0.34,-0.04 0.63,-0.06 0.59,-0.12 A 1.06,1.06 0 0 1 393,289 h -0.09 0.1 0.21 l 0.81,0.16 1.69,0.34 c 2.28,0.46 4.64,1 7,1.56 4.78,1.07 9.69,2.22 14.68,3 h 0.08 a 4.58,4.58 0 0 0 3.41,-8.22 101.63,101.63 0 0 0 -13.32,-8.05 c -2.31,-1.2 -4.69,-2.29 -7.19,-3.33 -0.63,-0.27 -1.25,-0.52 -1.92,-0.75 l -1,-0.36 -0.25,-0.09 h -0.13 l -0.31,-0.08 c -0.42,-0.1 -0.85,-0.19 -1.28,-0.27 a 23,23 0 0 0 -3.16,-0.25 c -0.89,0 -1.66,0 -2.42,0 -3,0.13 -5.63,0.48 -8.28,0.83 -2.65,0.35 -5.18,0.83 -7.72,1.3 -5.09,1 -10,2.12 -15,3.57 a 9.0018679,9.0018679 0 0 0 4.47,17.44 z"
       style="fill:#407bff"
       id="path308" />
    <path
       d="m 363.49,295.77 c 4.71,-1.07 9.54,-2.3 14.26,-3.43 2.36,-0.59 4.71,-1.13 7,-1.66 2.29,-0.53 4.62,-1 6.62,-1.32 0.49,-0.08 1,-0.15 1.34,-0.19 0.34,-0.04 0.63,-0.06 0.59,-0.12 A 1.06,1.06 0 0 1 393,289 h -0.09 0.1 0.21 l 0.81,0.16 1.69,0.34 c 2.28,0.46 4.64,1 7,1.56 4.78,1.07 9.69,2.22 14.68,3 h 0.08 a 4.58,4.58 0 0 0 3.41,-8.22 101.63,101.63 0 0 0 -13.32,-8.05 c -2.31,-1.2 -4.69,-2.29 -7.19,-3.33 -0.63,-0.27 -1.25,-0.52 -1.92,-0.75 l -1,-0.36 -0.25,-0.09 h -0.13 l -0.31,-0.08 c -0.42,-0.1 -0.85,-0.19 -1.28,-0.27 a 23,23 0 0 0 -3.16,-0.25 c -0.89,0 -1.66,0 -2.42,0 -3,0.13 -5.63,0.48 -8.28,0.83 -2.65,0.35 -5.18,0.83 -7.72,1.3 -5.09,1 -10,2.12 -15,3.57 a 9.0018679,9.0018679 0 0 0 4.47,17.44 z"
       style="opacity:0.7;fill:#ffffff"
       id="path309" />
    <path
       d="m 419.38,287 8.7,-0.8 -3.36,9.08 c 0,0 -7.81,0.25 -7.76,-3.78 z"
       style="fill:#407bff"
       id="path310" />
    <polygon
       points="424.72,295.25 428.08,286.17 435.85,289.98 430.31,296.81 "
       style="fill:#407bff"
       id="polygon310" />
    <g
       style="opacity:0.5"
       id="g311">
      <path
         d="m 419.38,287 8.7,-0.8 -3.36,9.08 c 0,0 -7.81,0.25 -7.76,-3.78 z"
         style="fill:#ffffff"
         id="path311" />
      <polygon
         points="424.72,295.25 428.08,286.17 435.85,289.98 430.31,296.81 "
         style="fill:#ffffff"
         id="polygon311" />
    </g>
    <path
       d="m 422.05,286.72 c 0,0 -4.78,2.5 -3.35,7.39 l -2,-0.17 c 0,0 -2.44,-4.8 4.25,-8.08 z"
       style="fill:#407bff"
       id="path312" />
    <path
       d="m 361,277.55 c 0,0 -13.33,10.9 1.41,18.41 l -1.74,0.65 c 0,0 -8.05,-0.36 -8.24,-9.33 -0.2,-8.74 8.57,-9.73 8.57,-9.73 z"
       style="fill:#407bff"
       id="path313" />
    <path
       d="m 395.52,272.88 c 0,0 -4.59,5.94 -2.19,16.17 l -1.22,0.2 a 21.6,21.6 0 0 1 2,-16.53 z"
       style="fill:#407bff"
       id="path314" />
    <path
       d="m 422.05,286.72 c 0,0 -4.78,2.5 -3.35,7.39 l -2,-0.17 c 0,0 -2.44,-4.8 4.25,-8.08 z"
       style="opacity:0.4;fill:#ffffff"
       id="path315" />
    <path
       d="m 361,277.55 c 0,0 -13.33,10.9 1.41,18.41 l -1.74,0.65 c 0,0 -8.05,-0.36 -8.24,-9.33 -0.2,-8.74 8.57,-9.73 8.57,-9.73 z"
       style="opacity:0.4;fill:#ffffff"
       id="path316" />
    <path
       d="m 395.52,272.88 c 0,0 -4.59,5.94 -2.19,16.17 l -1.22,0.2 a 21.6,21.6 0 0 1 2,-16.53 z"
       style="opacity:0.4;fill:#ffffff"
       id="path317" />
    <path
       d="m 367.75,234.93 -20.23,19.39 h -7.07 L 361,234.93 c 0,0 4.08,-2.67 6.75,0 z"
       style="fill:#407bff"
       id="path318" />
    <path
       d="m 367.75,234.93 -20.23,19.39 a 5.24,5.24 0 0 0 -7.07,0 L 361,234.93 c 0,0 4.08,-2.67 6.75,0 z"
       style="opacity:0.2;fill:#ffffff"
       id="path319" />
    <path
       d="m 345.32,236.66 a 6.12,6.12 0 0 1 -1,0.55 5.36,5.36 0 0 1 -1.88,0.42 c -0.74,0 -1.3,-0.21 -1.49,-0.64 -0.19,-0.43 0.21,-1.28 1,-1.89 a 5.5,5.5 0 0 1 1.18,-0.66 4.79,4.79 0 0 1 1.67,-0.41 c 0.84,-0.07 1.49,0.15 1.69,0.63 0.2,0.48 -0.25,1.34 -1.17,2 z"
       style="fill:#263238"
       id="path320" />
    <path
       d="m 294.44,160.81 -0.08,-0.5 c 0,0 2.34,-0.39 3.12,-1.72 l 0.43,0.25 c -0.91,1.54 -3.37,1.95 -3.47,1.97 z"
       style="fill:#ffffff"
       id="path321" />
    <path
       d="m 294.53,162 -0.26,-0.43 a 16,16 0 0 1 6.38,-2.14 v 0.5 a 15.62,15.62 0 0 0 -6.12,2.07 z"
       style="fill:#ffffff"
       id="path322" />
    <path
       d="m 294.51,162.37 -0.22,-0.45 c 3.12,-1.49 4.52,-0.75 4.58,-0.72 l -0.24,0.44 c 0,0 -1.27,-0.64 -4.12,0.73 z"
       style="fill:#ffffff"
       id="path323" />
    <path
       d="m 345.32,236.66 a 6.12,6.12 0 0 1 -1,0.55 5.36,5.36 0 0 1 -1.88,0.42 c -0.09,-0.65 -0.23,-1.53 -0.46,-2.53 a 18.53,18.53 0 0 0 -4.33,-8.76 c -6.68,-6.81 -14.69,-7.35 -23.17,-7.91 -8.11,-0.54 -16.5,-1.1 -24.09,-7.21 -7.74,-6.23 -11.61,-17.91 -9.88,-29.76 1.56,-10.63 7.18,-18.88 15.05,-22.09 l 1.13,2.78 c -6.87,2.8 -11.81,10.18 -13.21,19.75 -1.58,10.81 1.87,21.4 8.79,27 6.92,5.6 14.41,6 22.41,6.55 8.66,0.58 17.63,1.18 25.12,8.81 a 21.29,21.29 0 0 1 5,9.79 c 0.25,0.95 0.41,1.87 0.52,2.61 z"
       style="fill:#263238"
       id="path324" />
    <g
       style="opacity:0.5"
       id="g325">
      <path
         d="m 345.32,236.66 a 6.12,6.12 0 0 1 -1,0.55 5.36,5.36 0 0 1 -1.88,0.42 c -0.09,-0.65 -0.23,-1.53 -0.46,-2.53 a 18.53,18.53 0 0 0 -4.33,-8.76 c -6.68,-6.81 -14.69,-7.35 -23.17,-7.91 -8.11,-0.54 -16.5,-1.1 -24.09,-7.21 -7.74,-6.23 -11.61,-17.91 -9.88,-29.76 1.56,-10.63 7.18,-18.88 15.05,-22.09 l 1.13,2.78 c -6.87,2.8 -11.81,10.18 -13.21,19.75 -1.58,10.81 1.87,21.4 8.79,27 6.92,5.6 14.41,6 22.41,6.55 8.66,0.58 17.63,1.18 25.12,8.81 a 21.29,21.29 0 0 1 5,9.79 c 0.25,0.95 0.41,1.87 0.52,2.61 z"
         style="fill:#ffffff"
         id="path325" />
    </g>
  </g>
</svg>
